<svg width="48" height="47" viewBox="0 0 48 47" fill="none" xmlns="http://www.w3.org/2000/svg">
<path d="M10.0566 6.10076C11.5991 6.10091 12.8494 7.35126 12.8496 8.89373V44.091C12.8495 45.6336 11.5992 46.8838 10.0566 46.884H2.79395C1.25126 46.884 0.000104954 45.6337 0 44.091V8.89373C0.00021038 7.35117 1.25133 6.10076 2.79395 6.10076H10.0566ZM27.3701 17.2736C28.9129 17.2736 30.1631 18.5248 30.1631 20.0676V44.09C30.1631 45.6328 28.9129 46.884 27.3701 46.884H20.1074C18.5647 46.884 17.3135 45.6328 17.3135 44.09V20.0676C17.3135 18.5248 18.5647 17.2736 20.1074 17.2736H27.3701ZM44.6934 30.6828C46.2361 30.6828 47.4863 31.9331 47.4863 33.4758V44.091C47.4862 45.6336 46.236 46.884 44.6934 46.884H37.4307C35.888 46.884 34.6369 45.6336 34.6367 44.091V33.4758C34.6368 31.9331 35.8879 30.6828 37.4307 30.6828H44.6934ZM20.9922 0.641779C21.5378 0.356648 22.2101 0.567378 22.4971 1.11151V1.10955C22.4979 1.11103 22.4993 1.11342 22.501 1.11639C22.5074 1.12782 22.5202 1.15061 22.54 1.18377C22.5799 1.25032 22.6493 1.3604 22.7539 1.5158C22.9637 1.82739 23.3178 2.31981 23.874 3.00311C24.9871 4.37045 26.906 6.49876 30.0938 9.47576L30.5889 9.92498C33.1269 12.1693 36.6058 14.3786 39.5674 16.0783C40.4933 16.6097 41.363 17.0865 42.1279 17.4963L43.167 15.6984C43.435 15.2342 44.106 15.2342 44.374 15.6984L47.54 21.1818C47.8081 21.6461 47.4726 22.2267 46.9365 22.2267H40.6045C40.0685 22.2267 39.733 21.6461 40.001 21.1818L41.0098 19.4328C40.2433 19.0217 39.3767 18.5457 38.4551 18.0168C35.4641 16.3001 31.8198 13.9988 29.0996 11.592L28.5684 11.1096C25.321 8.07685 23.3294 5.87457 22.1406 4.41424C21.5461 3.68392 21.1516 3.13695 20.9004 2.76385C20.7748 2.57732 20.6841 2.43402 20.623 2.33221C20.5926 2.28139 20.5697 2.2404 20.5527 2.21014C20.5443 2.19508 20.5367 2.18208 20.5312 2.17205C20.5287 2.16732 20.5263 2.16295 20.5244 2.15936L20.5205 2.15154V2.15057C20.5258 2.14723 20.5966 2.10947 21.5098 1.63201L20.5195 2.14959C20.2339 1.60281 20.4455 0.927661 20.9922 0.641779Z" fill="#2C2C2C"/>
</svg>
