<svg width="68" height="69" viewBox="0 0 68 69" fill="none" xmlns="http://www.w3.org/2000/svg">
<path d="M52.3071 25.9948C57.6497 25.9948 62.0874 21.5571 62.0874 16.1865C62.0874 10.8158 57.678 6.37793 52.3071 6.37793C46.9082 6.37793 42.4986 10.8158 42.4986 16.1865C42.4986 21.5571 46.9082 25.9948 52.3071 25.9948ZM20.5357 63.0239H41.8202C46.6256 63.0239 50.6959 62.5717 53.5791 59.6884C56.4623 56.8053 56.886 52.7914 56.886 47.9579V29.0193C55.4447 29.5565 53.89 29.839 52.3071 29.839C44.7882 29.839 38.6262 23.677 38.6262 16.1865C38.6262 14.5752 38.9089 13.0205 39.4459 11.6073H20.4509C15.7021 11.6073 11.6317 12.0596 8.74859 14.9427C5.86533 17.8259 5.44141 21.868 5.44141 26.5884V47.9579C5.44141 52.7914 5.86533 56.8053 8.74859 59.6884C11.6317 62.5717 15.7021 63.0239 20.5357 63.0239Z" fill="#2C2C2C"/>
<path fill-rule="evenodd" clip-rule="evenodd" d="M24.7891 29.4898C24.499 29.7834 24.0962 29.9653 23.6508 29.9653C22.767 29.9653 22.0505 29.2488 22.0505 28.365C22.0505 27.4811 22.767 26.7646 23.6508 26.7646C24.2522 26.7646 24.776 27.0963 25.0495 27.5867L25.1797 27.5867L26.268 27.5867L29.7438 27.5868C32.3875 27.5868 35.3503 27.5868 36.6261 27.5867C38.2217 27.5866 39.67 28.3779 40.6952 29.4869C41.7203 30.5958 42.3993 32.103 42.3781 33.6674C42.3527 35.5288 41.4706 37.3914 40.0358 38.4736C40.4683 38.7886 40.8439 39.1763 41.1573 39.6108C41.9831 40.7556 42.3981 42.241 42.3782 43.702C42.359 45.1107 41.7427 46.4213 40.8753 47.4161C40.0112 48.4072 38.8295 49.1636 37.5702 49.3863C36.976 49.4914 35.8249 49.5345 34.5271 49.5509C33.1957 49.5678 31.6158 49.5565 30.1053 49.5342C28.5936 49.5119 27.1456 49.4784 26.076 49.4506C25.5885 49.4379 25.1793 49.4264 24.8782 49.4176C24.5846 49.768 24.1437 49.9908 23.6508 49.9908C22.767 49.9908 22.0505 49.2744 22.0505 48.3905C22.0505 47.5067 22.767 46.7902 23.6508 46.7902C24.2123 46.7902 24.7063 47.0794 24.9919 47.517C25.285 47.5255 25.671 47.5363 26.1255 47.5481C27.1907 47.5759 28.6311 47.6092 30.1335 47.6313C31.6369 47.6535 33.1969 47.6644 34.503 47.6479C35.8429 47.631 36.8273 47.5851 37.2386 47.5123C37.9904 47.3793 38.8044 46.8955 39.4409 46.1655C40.0742 45.439 40.4634 44.5475 40.4753 43.6761C40.4904 42.5679 40.17 41.4951 39.6139 40.7241C39.0704 39.9708 38.3246 39.5244 37.4045 39.5245C36.1285 39.5246 33.447 39.5246 31.0845 39.5246L28.2904 39.5245C27.9978 39.8435 27.5776 40.0435 27.1107 40.0435C26.2268 40.0435 25.5103 39.327 25.5103 38.4432C25.5103 37.5593 26.2268 36.8428 27.1107 36.8428C27.6307 36.8428 28.0929 37.0909 28.3852 37.4753C28.4092 37.4763 28.4348 37.4774 28.4619 37.4785C28.6772 37.4875 28.9876 37.4999 29.3664 37.5137C30.1243 37.5414 31.1549 37.5746 32.247 37.5967C33.3404 37.6188 34.4891 37.6298 35.4853 37.6133C36.5035 37.5966 37.2958 37.5517 37.7143 37.4776C39.1646 37.2211 40.4487 35.5878 40.4751 33.6415C40.4889 32.6365 40.0436 31.5856 39.2977 30.7787C38.5519 29.9719 37.5826 29.4898 36.6263 29.4898C35.3503 29.4899 32.3875 29.4899 29.7438 29.4899L26.268 29.4898L25.1797 29.4898H24.8802H24.8019H24.7891ZM17.6394 34.8962C18.1667 34.8962 18.6345 34.6411 18.926 34.2476H32.9185C33.21 34.6411 33.6778 34.8962 34.2051 34.8962C35.089 34.8962 35.8055 34.1796 35.8055 33.2958C35.8055 32.412 35.089 31.6955 34.2051 31.6955C33.6776 31.6955 33.2097 31.9507 32.9181 32.3445H18.9264C18.6349 31.9507 18.1669 31.6955 17.6394 31.6955C16.7556 31.6955 16.0391 32.412 16.0391 33.2958C16.0391 34.1796 16.7556 34.8962 17.6394 34.8962ZM35.8055 43.5903C35.8055 44.4741 35.089 45.1906 34.2051 45.1906C33.6773 45.1906 33.2091 44.9351 32.9176 44.5409H18.9269C18.6354 44.9351 18.1672 45.1906 17.6394 45.1906C16.7556 45.1906 16.0391 44.4741 16.0391 43.5903C16.0391 42.7064 16.7556 41.99 17.6394 41.99C18.1664 41.99 18.634 42.2447 18.9256 42.6378H32.9189C33.2105 42.2447 33.6781 41.99 34.2051 41.99C35.089 41.99 35.8055 42.7064 35.8055 43.5903Z" fill="#DCFC00"/>
<circle cx="52.0625" cy="15.9932" r="10.5" fill="#2C2C2C"/>
</svg>
