<svg width="44" height="44" viewBox="0 0 44 44" fill="none" xmlns="http://www.w3.org/2000/svg">
<rect x="0.5" y="0.5" width="43" height="43" rx="4.5" fill="white" fill-opacity="0.1"/>
<rect x="0.5" y="0.5" width="43" height="43" rx="4.5" stroke="white"/>
<path d="M21.7957 11.8008C23.75 14.9123 25.5227 15.7072 29.0056 14.791C28.0898 18.2742 28.8847 20.0469 31.9968 22.001C28.8847 23.9554 28.0897 25.7279 29.0056 29.2109C25.5227 28.2951 23.75 29.0896 21.7957 32.2012C21.7553 32.1369 21.7128 32.075 21.6726 32.0127V28.6816C21.7135 28.6824 21.7546 28.6855 21.7957 28.6855C25.4873 28.6855 28.4811 25.6929 28.4812 22.001C28.4812 18.3092 25.4874 15.3164 21.7957 15.3164C21.7546 15.3164 21.7135 15.3186 21.6726 15.3193V11.9883C21.7127 11.9263 21.7555 11.8648 21.7957 11.8008ZM21.0086 32.2002C20.4731 32.169 20.0487 31.7258 20.0486 31.1826V30.585L19.7498 30.8838L19.6716 30.9541C19.271 31.2806 18.6799 31.2569 18.3064 30.8838C17.9084 30.4854 17.9083 29.8398 18.3064 29.4414L20.0486 27.6992V23.7822L16.405 25.8857L15.8425 27.9873L14.8572 27.7227L13.8718 27.459L13.906 27.3291L13.6531 27.4756C13.1653 27.7569 12.5413 27.5892 12.2595 27.1016C11.9781 26.6136 12.1457 25.9897 12.6336 25.708L12.8865 25.5615L12.7566 25.5273C12.2124 25.3815 11.8893 24.8225 12.0349 24.2783C12.1717 23.7682 12.672 23.4525 13.1824 23.5352L13.2849 23.5566L15.3855 24.1191L19.0545 22L15.3845 19.8809L13.284 20.4443C12.7398 20.5899 12.1808 20.2667 12.0349 19.7227C11.8893 19.1785 12.2125 18.6194 12.7566 18.4736L12.8865 18.4385L12.6336 18.293C12.1457 18.0113 11.978 17.3874 12.2595 16.8994C12.5237 16.4422 13.0888 16.2668 13.5603 16.4785L13.6541 16.5264L13.905 16.6709L13.8709 16.542L14.8572 16.2783L15.8425 16.0137L16.405 18.1143L20.0486 20.2178V16.3018L18.3064 14.5596L19.0281 13.8389L19.7498 13.1172L20.0486 13.416V12.8184C20.0487 12.2751 20.4731 11.8319 21.0086 11.8008V32.2002ZM15.8425 27.9873C15.6967 28.5312 15.1365 28.8544 14.5925 28.709C14.0485 28.563 13.7261 28.0031 13.8718 27.459L15.8425 27.9873ZM21.7957 15.8301C25.2035 15.8301 27.9665 18.5931 27.9666 22.001C27.9664 25.4092 25.2035 28.1718 21.7957 28.1719C21.7546 28.1719 21.7135 28.1688 21.6726 28.168V15.833C21.7135 15.8322 21.7546 15.8301 21.7957 15.8301ZM14.5925 15.293C15.1365 15.1476 15.6966 15.4698 15.8425 16.0137L13.8709 16.542C13.7253 15.9979 14.0485 15.4389 14.5925 15.293ZM18.3064 13.1172C18.7049 12.7191 19.3514 12.7189 19.7498 13.1172L18.3064 14.5596C17.9084 14.1612 17.9083 13.5155 18.3064 13.1172Z" fill="white"/>
</svg>
