<svg width="40" height="40" viewBox="0 0 40 40" fill="none" xmlns="http://www.w3.org/2000/svg">
<rect x="0.328125" y="0.222656" width="39.3215" height="39.3215" rx="19.6608" fill="#DCFC00"/>
<g clip-path="url(#clip0_1769_2247)">
<path d="M26.7597 10.3945H11.8446C10.3469 10.3945 9.13281 11.6087 9.13281 13.1064V17.1741C9.13281 18.6718 10.3469 19.8859 11.8446 19.8859H26.7597C28.2574 19.8859 29.4715 18.6718 29.4715 17.1741V13.1064C29.4715 11.6087 28.2574 10.3945 26.7597 10.3945Z" stroke="#2F2F2F" stroke-width="1.35591" stroke-linecap="round" stroke-linejoin="round"/>
<path d="M13.2031 13.1055H25.4064" stroke="#2F2F2F" stroke-width="1.35591" stroke-linecap="round" stroke-linejoin="round"/>
<path d="M11.8438 19.8857V18.5297C11.8438 18.1701 11.9866 17.8252 12.2409 17.571C12.4952 17.3167 12.8401 17.1738 13.1997 17.1738H25.4029C25.7625 17.1738 26.1074 17.3167 26.3617 17.571C26.616 17.8252 26.7588 18.1701 26.7588 18.5297V19.8857" stroke="#2F2F2F" stroke-width="1.35591" stroke-linecap="round" stroke-linejoin="round"/>
<path d="M11.9663 30.042C12.4747 29.5335 12.7603 28.8438 12.7603 28.1248C12.7603 27.4057 12.4747 26.7161 11.9663 26.2075C11.7144 25.9557 11.5147 25.6567 11.3783 25.3277C11.242 24.9986 11.1719 24.6459 11.1719 24.2898C11.1719 23.9336 11.242 23.581 11.3783 23.2519C11.5092 22.9359 11.6987 22.6477 11.9365 22.4023" stroke="#2F2F2F" stroke-width="1.35591" stroke-linecap="round" stroke-linejoin="round"/>
<path d="M19.1929 30.0418C19.7013 29.5333 19.9868 28.8437 19.9868 28.1246C19.9868 27.4055 19.7013 26.7159 19.1929 26.2073C18.941 25.9555 18.7412 25.6565 18.6049 25.3275C18.4686 24.9985 18.3984 24.6457 18.3984 24.2896C18.3984 23.9334 18.4686 23.5808 18.6049 23.2517C18.7358 22.9359 18.9252 22.6477 19.1629 22.4023" stroke="#2F2F2F" stroke-width="1.35591" stroke-linecap="round" stroke-linejoin="round"/>
<path d="M26.4351 30.0413C26.9435 29.5327 27.229 28.8431 27.229 28.124C27.229 27.4049 26.9435 26.7153 26.4351 26.2068C26.1832 25.9549 25.9834 25.656 25.8471 25.327C25.7108 24.9978 25.6406 24.6452 25.6406 24.2891C25.6406 23.9329 25.7108 23.5802 25.8471 23.2511C25.9796 22.9313 26.1721 22.6399 26.414 22.3926" stroke="#2F2F2F" stroke-width="1.35591" stroke-linecap="round" stroke-linejoin="round"/>
</g>
<defs>
<clipPath id="clip0_1769_2247">
<rect width="21.6946" height="21.6946" fill="white" transform="translate(8.46094 9.7168)"/>
</clipPath>
</defs>
</svg>
