<svg width="40" height="40" viewBox="0 0 40 40" fill="none" xmlns="http://www.w3.org/2000/svg">
<rect x="0.328125" y="0.222656" width="39.3215" height="39.3215" rx="19.6608" fill="#DCFC00"/>
<g clip-path="url(#clip0_1769_2259)">
<path d="M24.2883 10.4181C23.0198 9.14739 21.2561 8.35861 19.318 8.35938C17.38 8.35861 15.6163 9.14739 14.3478 10.4181C13.0778 11.6873 12.2883 13.4503 12.2891 15.3883C12.2883 17.0396 12.8619 18.5658 13.8182 19.7642C14.0997 20.1188 14.3433 20.4129 14.5377 20.6654C14.6837 20.8546 14.8021 21.02 14.896 21.1704C15.0367 21.3969 15.1224 21.5838 15.1857 21.808C15.2475 22.033 15.2855 22.307 15.2862 22.6944C15.2862 22.9551 15.3153 23.209 15.3883 23.4585C15.4427 23.6447 15.5239 23.8294 15.6386 23.9993C15.8076 24.2555 16.0587 24.4708 16.3342 24.5982C16.6091 24.727 16.8958 24.774 17.1633 24.774H21.4736C21.7112 24.774 21.9637 24.7367 22.211 24.6377C22.3957 24.5639 22.5759 24.4537 22.7294 24.3122C22.9617 24.1006 23.1249 23.8288 23.2194 23.5517C23.3148 23.2732 23.3505 22.9879 23.3505 22.6945C23.3505 22.3503 23.3811 22.0949 23.431 21.8856C23.5085 21.5727 23.6217 21.3403 23.8429 21.0148C24.0626 20.6923 24.3948 20.2961 24.8194 19.7643C25.775 18.5659 26.3478 17.039 26.347 15.3884C26.3477 13.4503 25.5582 11.6873 24.2883 10.4181ZM23.2522 18.5158C22.9818 18.854 22.7383 19.1497 22.5126 19.4409C22.3442 19.6599 22.1856 19.8774 22.0404 20.1098C21.8236 20.4568 21.6389 20.8427 21.5197 21.2747C21.4005 21.7067 21.3469 22.1737 21.3469 22.6943C21.3469 22.7226 21.3462 22.7479 21.3447 22.7703H17.2928C17.2913 22.7479 17.2898 22.7234 17.2898 22.6943C17.2898 22.231 17.2481 21.811 17.1535 21.4192C17.015 20.83 16.7535 20.3265 16.4467 19.8818C16.1376 19.4335 15.7882 19.0238 15.3853 18.5158C14.7001 17.6556 14.2934 16.5741 14.2926 15.3883C14.2934 13.9977 14.8535 12.7479 15.7652 11.8348C16.6776 10.9238 17.9267 10.3629 19.318 10.3629C20.7093 10.3629 21.9592 10.9238 22.8716 11.8347C23.7825 12.7479 24.3426 13.9977 24.3434 15.3883C24.3426 16.5748 23.936 17.6563 23.2522 18.5158Z" fill="#2F2F2F"/>
<path d="M19.3156 32.7648C20.1453 32.7648 20.8186 32.0922 20.8186 31.2617H17.8125C17.8125 32.0922 18.4859 32.7648 19.3156 32.7648Z" fill="#2F2F2F"/>
<path d="M21.8928 25.9668H16.7408C16.2924 25.9668 15.9297 26.3295 15.9297 26.7772C15.9297 27.2255 16.2924 27.5883 16.7408 27.5883H21.8928C22.3404 27.5883 22.7039 27.2256 22.7039 26.7772C22.7039 26.3295 22.3404 25.9668 21.8928 25.9668Z" fill="#2F2F2F"/>
<path d="M21.8928 28.584H16.7408C16.2924 28.584 15.9297 28.9467 15.9297 29.3951C15.9297 29.8428 16.2924 30.2055 16.7408 30.2055H21.8928C22.3404 30.2055 22.7039 29.8428 22.7039 29.3951C22.7039 28.9467 22.3404 28.584 21.8928 28.584Z" fill="#2F2F2F"/>
</g>
<defs>
<clipPath id="clip0_1769_2259">
<rect width="24.4065" height="24.4065" fill="white" transform="translate(7.10938 8.35938)"/>
</clipPath>
</defs>
</svg>
