<?xml version="1.0" encoding="utf-8"?>
<!-- Generator: Adobe Illustrator 24.2.3, SVG Export Plug-In . SVG Version: 6.00 Build 0)  -->
<svg version="1.1" id="Layer_1" xmlns="http://www.w3.org/2000/svg" xmlns:xlink="http://www.w3.org/1999/xlink" x="0px" y="0px"
	 viewBox="0 0 44 44" style="enable-background:new 0 0 44 44;" xml:space="preserve">
<style type="text/css">
	.st0{fill:#FFFFFF;fill-opacity:0.1;}
	.st1{fill:none;stroke:#FFFFFF;}
	.st2{fill:#FFFFFF;}
</style>
<path class="st0" d="M5,0.5h34c2.5,0,4.5,2,4.5,4.5v34c0,2.5-2,4.5-4.5,4.5H5c-2.5,0-4.5-2-4.5-4.5V5C0.5,2.5,2.5,0.5,5,0.5z"/>
<path class="st1" d="M5,0.5h34c2.5,0,4.5,2,4.5,4.5v34c0,2.5-2,4.5-4.5,4.5H5c-2.5,0-4.5-2-4.5-4.5V5C0.5,2.5,2.5,0.5,5,0.5z"/>
<path class="st2" d="M29.3,27c0.4,0,0.7,0.3,0.7,0.7v2.7c0,0.4-0.3,0.7-0.7,0.7H14.7c-0.4,0-0.7-0.3-0.7-0.7v-2.7
	c0-0.4,0.3-0.7,0.7-0.7H29.3z M29.3,22.3c0.4,0,0.7,0.3,0.7,0.7v2.7c0,0.4-0.3,0.7-0.7,0.7H14.7c-0.4,0-0.7-0.3-0.7-0.7V23
	c0-0.4,0.3-0.7,0.7-0.7h1.6c-0.1,0.2-0.2,0.5-0.2,0.8c0,0.9,0.7,1.7,1.7,1.7c0.9,0,1.7-0.7,1.7-1.7c0-0.3-0.1-0.6-0.2-0.8H29.3z
	 M17,21.6c0,0-0.1,0-0.1,0h-2.3c-0.4,0-0.7-0.3-0.7-0.7v-2.7c0-0.4,0.3-0.7,0.7-0.7H17V21.6z M29.3,17.7c0.4,0,0.7,0.3,0.7,0.7V21
	c0,0.4-0.3,0.7-0.7,0.7H18.4c0,0-0.1,0-0.1,0v-4H29.3z M29.3,13c0.4,0,0.7,0.3,0.7,0.7v2.7c0,0.4-0.3,0.7-0.7,0.7h-11v-1.3H17V17
	h-2.4c-0.4,0-0.7-0.3-0.7-0.7v-2.7c0-0.4,0.3-0.7,0.7-0.7H29.3z"/>
</svg>
