<svg width="40" height="40" viewBox="0 0 40 40" fill="none" xmlns="http://www.w3.org/2000/svg">
<rect x="0.328125" y="0.222656" width="39.3215" height="39.3215" rx="19.6608" fill="#DCFC00"/>
<path d="M21.5957 8.51806L19.6312 18.8422L26.749 18.8657L17.0597 32.8611L19.0251 21.5033L11.9072 21.4781L21.5957 8.51806ZM21.5966 6.77734C21.5495 6.77734 21.5025 6.77909 21.4564 6.78257C21.149 6.80695 20.9452 6.91058 20.704 7.07254C20.5699 7.16136 20.4471 7.27108 20.3391 7.39735C20.3069 7.43479 20.2773 7.47398 20.2494 7.51404L10.4905 20.4296C10.1056 20.9582 10.0481 21.6549 10.3442 22.2374C10.6402 22.82 11.2376 23.1892 11.8933 23.1944L16.9204 23.231L15.3399 32.5433C15.1901 33.3435 15.6168 34.1412 16.3674 34.4625C16.5912 34.5583 16.8264 34.6044 17.058 34.6044C17.6057 34.6044 18.055 34.3484 18.3929 33.886L28.1632 19.8906C28.5481 19.3621 28.6047 18.6645 28.3095 18.0829C28.0134 17.5003 27.4161 17.1311 26.7604 17.1267L21.7333 17.118L23.2972 8.93082C23.3303 8.79933 23.3469 8.66261 23.3469 8.52154C23.3469 7.57934 22.5971 6.8113 21.6584 6.78083C21.6375 6.77996 21.6175 6.77996 21.5966 6.77996V6.77734Z" fill="#2F2F2F"/>
</svg>
