<svg width="44" height="44" viewBox="0 0 44 44" fill="none" xmlns="http://www.w3.org/2000/svg">
<rect x="0.5" y="0.5" width="43" height="43" rx="4.5" fill="white" fill-opacity="0.1"/>
<rect x="0.5" y="0.5" width="43" height="43" rx="4.5" stroke="white"/>
<path fill-rule="evenodd" clip-rule="evenodd" d="M17.8438 22.0009C17.8438 19.907 19.3921 18.1748 21.4062 17.8867V18.4384C21.4062 18.7663 21.6721 19.0321 22 19.0321C22.3279 19.0321 22.5938 18.7663 22.5938 18.4384V17.8867C24.6079 18.1748 26.1562 19.907 26.1562 22.0009C26.1562 24.0948 24.6079 25.8269 22.5938 26.115V25.5633C22.5938 25.2354 22.3279 24.9695 22 24.9695C21.6721 24.9695 21.4062 25.2354 21.4062 25.5633V26.115C19.3921 25.8269 17.8438 24.0948 17.8438 22.0009ZM24.375 22.0009C24.375 22.4381 24.0206 22.7925 23.5833 22.7925C23.1461 22.7925 22.7917 22.4381 22.7917 22.0009C22.7917 21.5636 23.1461 21.2092 23.5833 21.2092C24.0206 21.2092 24.375 21.5636 24.375 22.0009ZM20.4167 22.7925C20.8539 22.7925 21.2083 22.4381 21.2083 22.0009C21.2083 21.5636 20.8539 21.2092 20.4167 21.2092C19.9794 21.2092 19.625 21.5636 19.625 22.0009C19.625 22.4381 19.9794 22.7925 20.4167 22.7925Z" fill="white"/>
<path fill-rule="evenodd" clip-rule="evenodd" d="M15.1208 14.084C14.5484 14.084 14.0859 14.5465 14.0859 15.1188C14.0859 16.5927 14.0859 19.4061 14.0859 22.0007C14.0859 24.5952 14.0859 27.4086 14.0859 28.8825C14.0859 29.4548 14.5484 29.9173 15.1208 29.9173C16.5947 29.9173 19.4081 29.9173 22.0026 29.9173C24.5971 29.9173 27.4105 29.9173 28.8844 29.9173C29.4568 29.9173 29.9193 29.4548 29.9193 28.8825C29.9193 27.4086 29.9193 24.5952 29.9193 22.0007C29.9193 19.4061 29.9193 16.5927 29.9193 15.1188C29.9193 14.5465 29.4568 14.084 28.8844 14.084C27.4105 14.084 24.5971 14.084 22.0026 14.084C19.4081 14.084 16.5947 14.084 15.1208 14.084ZM22.0026 16.6569C19.0513 16.6569 16.6589 19.0494 16.6589 22.0007C16.6589 24.9519 19.0513 27.3444 22.0026 27.3444C24.9539 27.3444 27.3464 24.9519 27.3464 22.0007C27.3464 19.0494 24.9539 16.6569 22.0026 16.6569Z" fill="white"/>
</svg>
