<svg width="40" height="40" viewBox="0 0 40 40" fill="none" xmlns="http://www.w3.org/2000/svg">
<rect width="39.3215" height="39.3215" rx="19.6608" fill="#DCFC00"/>
<path d="M29.0572 19.3433C29.0572 24.8687 25.046 30.0438 19.5658 31.5579C19.193 31.6596 18.7862 31.6596 18.4133 31.5579C12.9331 30.0438 8.92188 24.8687 8.92188 19.3433V14.3829C8.92188 13.4564 9.62244 12.4056 10.4925 12.0553L16.7862 9.47907C18.1986 8.90281 19.7918 8.90281 21.2042 9.47907L27.4979 12.0553C28.3567 12.4056 29.0685 13.4564 29.0685 14.3829L29.0572 19.3433Z" stroke="#2F2F2F" stroke-width="2.03387" stroke-linecap="round" stroke-linejoin="round"/>
<path d="M22.6597 16.5462C22.5873 16.4735 22.4964 16.422 22.3968 16.3971C22.2973 16.3722 22.1929 16.3749 22.0948 16.4049C21.9981 16.4323 21.9106 16.485 21.841 16.5574C21.7715 16.6299 21.7226 16.7196 21.6993 16.8173C21.6447 17.041 21.5591 17.2558 21.4451 17.4557C21.2488 16.6668 20.8981 15.9245 20.4132 15.2719C19.9284 14.6193 19.319 14.0692 18.6202 13.6535C18.5352 13.5961 18.4361 13.5628 18.3336 13.5574C18.2311 13.552 18.1291 13.5746 18.0385 13.6228C17.9479 13.6711 17.8721 13.743 17.8193 13.8311C17.7665 13.9191 17.7387 14.0198 17.7389 14.1225C17.7436 14.6966 17.625 15.2651 17.391 15.7895C17.1571 16.3138 16.8134 16.7819 16.383 17.162C15.6937 17.9134 14.9141 18.7665 14.9141 20.3371C14.9141 23.1619 16.609 24.8568 19.4338 24.8568C22.2586 24.8568 23.9535 23.2127 23.9535 20.3371C23.9535 19.2071 23.3885 17.275 22.6597 16.5462Z" fill="#2F2F2F"/>
</svg>
