<svg width="44" height="44" viewBox="0 0 44 44" fill="none" xmlns="http://www.w3.org/2000/svg">
<rect x="0.5" y="0.5" width="43" height="43" rx="4.5" fill="white" fill-opacity="0.1"/>
<rect x="0.5" y="0.5" width="43" height="43" rx="4.5" stroke="white"/>
<path d="M22.2324 16.418C23.7736 16.418 25.0225 17.6678 25.0225 19.209V24.79C25.0225 26.3312 23.7736 27.581 22.2324 27.5811H14.791C13.2498 27.5811 12 26.3313 12 24.79V19.209C12 17.6678 13.2498 16.418 14.791 16.418H22.2324ZM29.8281 17.5195C30.7549 16.8972 32.0006 17.5615 32.001 18.6777V25.3203C32.0009 26.4369 30.755 27.101 29.8281 26.4785L26.8887 24.5039C26.503 24.2447 26.2715 23.8104 26.2715 23.3457V20.6523C26.2716 20.1877 26.503 19.7532 26.8887 19.4941L29.8281 17.5195Z" fill="white"/>
</svg>
