<svg width="768" height="152" viewBox="0 0 768 152" fill="none" xmlns="http://www.w3.org/2000/svg">
<g filter="url(#filter0_d_1586_1550)">
<path fill-rule="evenodd" clip-rule="evenodd" d="M59.3765 24.6895C57.7062 26.3797 55.387 27.427 52.8227 27.427C47.7344 27.427 43.6093 23.302 43.6093 18.2135C43.6093 13.125 47.7344 9 52.8227 9C56.2851 9 59.3011 10.9096 60.8754 13.7329L61.6253 13.733L67.8908 13.733L87.9017 13.7332C103.123 13.7333 120.18 13.7333 127.525 13.7329C136.711 13.7324 145.05 18.2879 150.952 24.6726C156.854 31.0568 160.763 39.7346 160.641 48.7407C160.495 59.4576 155.416 70.1808 147.155 76.4113C149.646 78.2253 151.808 80.4572 153.612 82.9589C158.367 89.5497 160.756 98.1015 160.641 106.513C160.531 114.623 156.982 122.169 151.989 127.896C147.014 133.602 140.211 137.957 132.96 139.239C129.539 139.844 122.912 140.092 115.441 140.186C107.775 140.284 98.6797 140.219 89.9833 140.09C81.28 139.962 72.9435 139.769 66.7855 139.609C63.9787 139.536 61.6228 139.469 59.8891 139.419C58.1991 141.436 55.6608 142.719 52.8227 142.719C47.7344 142.719 43.6093 138.594 43.6093 133.506C43.6093 128.418 47.7344 124.292 52.8227 124.292C56.0557 124.292 58.8996 125.958 60.5439 128.477C62.231 128.526 64.4535 128.588 67.0705 128.656C73.203 128.816 81.4958 129.007 90.1452 129.135C98.8011 129.263 107.782 129.326 115.302 129.231C123.016 129.133 128.683 128.869 131.052 128.45C135.38 127.684 140.066 124.899 143.73 120.696C147.376 116.513 149.617 111.38 149.686 106.364C149.773 99.9834 147.928 93.8073 144.726 89.3685C141.597 85.031 137.304 82.4614 132.006 82.4618C124.66 82.4623 109.222 82.4623 95.6204 82.4623L79.534 82.4618C77.8497 84.2985 75.4304 85.4498 72.7422 85.4498C67.6536 85.4498 63.5286 81.3249 63.5286 76.2363C63.5286 71.1477 67.6536 67.0227 72.7422 67.0227C75.7364 67.0227 78.3974 68.4512 80.08 70.6642C80.2184 70.67 80.3654 70.6762 80.5214 70.6824C81.7614 70.7343 83.5482 70.8059 85.729 70.8854C90.0924 71.0448 96.0256 71.2358 102.313 71.3631C108.609 71.4903 115.222 71.5533 120.957 71.4586C126.819 71.3622 131.381 71.1036 133.79 70.6774C142.14 69.2003 149.533 59.7973 149.685 48.5916C149.764 42.8057 147.201 36.7556 142.906 32.1101C138.613 27.4652 133.032 24.6892 127.526 24.6895C120.18 24.6899 103.123 24.6899 87.9017 24.6898L67.8908 24.6896L61.6249 24.6895H59.9007H59.4498H59.3765ZM18.2135 55.8152C21.2495 55.8152 23.9426 54.3468 25.6211 52.081H106.179C107.858 54.3468 110.551 55.8152 113.587 55.8152C118.675 55.8152 122.8 51.6898 122.8 46.6015C122.8 41.513 118.675 37.388 113.587 37.388C110.55 37.388 107.856 38.8576 106.177 41.1246H25.6232C23.9448 38.8576 21.2507 37.388 18.2135 37.388C13.125 37.388 9 41.513 9 46.6015C9 51.6898 13.125 55.8152 18.2135 55.8152ZM122.8 105.87C122.8 110.958 118.675 115.083 113.587 115.083C110.548 115.083 107.852 113.612 106.174 111.343H25.6259C23.9477 113.612 21.2524 115.083 18.2135 115.083C13.125 115.083 9 110.958 9 105.87C9 100.781 13.125 96.6561 18.2135 96.6561C21.2479 96.6561 23.9397 98.1229 25.6184 100.386H106.182C107.861 98.1229 110.553 96.6561 113.587 96.6561C118.675 96.6561 122.8 100.781 122.8 105.87Z" fill="#DCFC00"/>
<path fill-rule="evenodd" clip-rule="evenodd" d="M201.648 17.1873C201.648 16.8929 201.887 16.6543 202.181 16.6543H250.494C252.986 16.6543 255.278 17.2299 257.472 18.2168C259.565 19.2858 261.259 20.6837 262.555 22.4107C263.751 24.2198 264.449 26.1112 264.449 28.1671V32.6899V37.2128C264.449 40.4688 262.928 43.0273 260.041 44.9533C259.702 45.1797 259.701 45.6936 260.039 45.9222C262.641 47.6784 264.085 49.9834 264.449 52.8372V62.6595C264.449 62.6901 264.447 62.7201 264.441 62.7502C264.361 63.196 263.678 66.8419 262.555 68.4618C261.259 70.2706 259.565 71.6686 257.472 72.6557C255.279 73.7241 252.988 74.2177 250.496 74.2181C250.495 74.2181 250.496 74.2181 250.493 74.2181C250.431 74.2186 205.328 74.717 201.855 74.2677C201.715 74.2495 201.648 74.139 201.648 73.9979V17.1873ZM221.477 40.5126C221.477 40.2192 221.709 39.981 222.002 39.9796C230.868 39.9389 246.178 39.8667 249.533 39.8397C254.321 39.8011 255.037 27.6626 249.533 27.5807C244.081 27.4996 216.136 27.509 215.612 27.5092C215.598 27.5092 215.604 27.5202 215.604 27.5338C215.604 27.5473 215.593 27.5584 215.58 27.5584H213.277C212.982 27.5584 212.744 27.797 212.744 28.0913V62.7772C212.744 63.0713 212.982 63.3101 213.277 63.3101H215.577C215.592 63.3101 215.604 63.322 215.604 63.3366C215.604 63.3512 215.616 63.3632 215.631 63.3632H249.533C249.533 63.3632 252.949 63.3632 253.216 57.2955C253.471 51.4919 249.869 50.9064 249.554 50.8661C249.539 50.8639 249.525 50.8635 249.508 50.8635H222.01C221.715 50.8635 221.477 50.6251 221.477 50.3306V40.5126Z" fill="#DCFC00"/>
<path fill-rule="evenodd" clip-rule="evenodd" d="M280.288 16.7734C279.257 16.7734 278.422 17.6087 278.422 18.6389V72.4718C278.422 73.5018 279.257 74.3372 280.288 74.3372H288.439C289.47 74.3372 290.305 73.5018 290.305 72.4718V52.5623H290.201V39.4904C290.127 35.6333 290.162 27.6407 290.305 27.6283C290.443 27.6165 307.19 27.6219 318.915 27.6257H318.919C323.264 27.6271 326.918 27.6283 328.782 27.6283C335.678 27.6283 336.174 41.526 328.782 41.526C326.736 41.526 322.886 41.5225 318.385 41.518H318.381C312.992 41.5132 306.669 41.5074 301.389 41.5056V52.2788C308.776 52.2859 318.118 52.3323 323.685 52.3602C326.128 52.3721 327.844 52.3805 328.35 52.3805C330.499 52.3805 330.345 67.0485 330.217 72.4073C330.191 73.4642 331.04 74.3372 332.097 74.3372H341.148C342.148 74.3372 342.969 73.5558 343.004 72.5563C343.162 68.1157 343.5 56.7004 342.937 53.8169C342.401 51.0741 340.358 48.8085 339.414 47.7608C339.117 47.4322 338.929 47.2235 338.929 47.1571C338.929 47.07 339.154 46.8104 339.515 46.392C340.305 45.4784 341.748 43.8084 342.937 41.526C344.671 38.1977 344.671 33.8447 344.671 33.8447C344.671 33.5685 344.679 33.2722 344.687 32.9552C344.741 30.946 344.818 28.1086 343.026 24.3242C342.968 24.2006 342.893 24.0841 342.811 23.975C342.504 23.5673 342.266 23.173 342.029 22.7801C341.303 21.5765 340.586 20.3869 337.899 18.8681C334.218 16.788 332.801 16.7734 330.161 16.7734H280.288Z" fill="#DCFC00"/>
<path fill-rule="evenodd" clip-rule="evenodd" d="M375.293 22.1978C374.062 23.92 373.529 25.5433 372.842 27.634L372.842 27.6354C372.807 27.7405 372.772 27.8467 372.737 27.9542C367.768 43.0468 360.861 65.1499 358.745 71.9428C358.425 72.9715 359.197 74.005 360.274 74.005H369.542C370.263 74.005 370.891 73.5344 371.083 72.8401C372.135 69.031 375.482 57.0015 376.687 53.7195L379.496 41.7824H379.7C379.775 41.4326 382.725 31.715 383.745 28.3592C383.95 27.6858 384.568 27.2324 385.272 27.2324H407.789C408.507 27.2324 409.136 27.7052 409.328 28.3978C410.278 31.8318 413.001 41.6798 413.001 41.7913C413.001 41.9412 402.327 41.9633 393.065 41.9306L389.859 52.904C400.88 52.9315 415.056 52.9987 415.22 53.1628C415.449 53.3914 420.16 68.5968 421.487 72.8883C421.695 73.5588 422.311 74.005 423.012 74.005H431.699C432.756 74.005 433.523 72.9976 433.24 71.9786L421.03 27.9542C420.198 25.5023 419.26 24.0069 418.066 22.1978C416.773 20.4709 416.157 19.7757 414.068 18.7066C413.532 18.465 413.105 18.2458 412.728 18.0526C411.564 17.4567 410.882 17.1076 409.005 17.1076H384.087C383.869 17.1076 383.671 17.107 383.491 17.1064C382.548 17.1034 382.078 17.1018 381.63 17.2018C381.183 17.3016 380.759 17.5023 379.912 17.9031C379.844 17.9354 379.773 17.9689 379.699 18.0039C377.511 19.0729 376.486 20.4709 375.293 22.1978Z" fill="#DCFC00"/>
<path d="M507.901 22.1431C509.325 23.9255 510.298 24.3275 510.298 42.4501V74.3769H498.437V30.0593C498.437 25.8741 459.263 25.7409 459.263 30.0593V74.3769H447.273C447.273 74.3769 447.273 63.9031 447.273 42.7164C447.273 21.5293 448.605 22.987 448.737 22.1875C448.87 21.388 451.125 19.3643 453.133 18.5898C458.361 16.5762 461.797 16.8132 461.797 16.8132C461.797 16.8132 492.71 16.6359 495.907 16.8132C499.105 16.9904 500.896 17.3226 503.638 18.8119C505.491 19.8214 506.579 20.4931 507.901 22.1431Z" fill="#DCFC00"/>
<path d="M531.293 74.3247C533.681 74.3247 535.547 74.3247 538.121 74.3247H572.767C575.244 74.3247 577.521 73.8312 579.697 72.7627C581.776 71.7765 583.46 70.379 584.743 68.5706C585.933 66.8441 586.627 64.9535 586.627 62.8165V51.3084C586.525 49.3355 585.835 47.4449 584.646 45.7184C583.359 44.0745 581.678 42.677 579.6 41.6908C577.419 40.7043 575.142 40.1289 572.767 40.1289L538.311 39.819C537.144 39.8085 536.202 38.8572 536.202 37.6871V29.7663C536.202 28.5888 537.153 27.6343 538.334 27.6343H572.767H583.16C584.341 27.6343 585.291 26.68 585.291 25.5025C585.291 23.5594 585.291 20.9263 585.291 19.1132C585.291 17.9532 584.367 17.0118 583.208 16.9434C581.975 16.8705 581.112 16.7838 579.6 16.7832C577.043 16.7832 575.244 16.7837 572.767 16.7837H538.121C535.547 16.7837 533.274 17.3591 531.196 18.3456C529.015 19.4142 527.335 20.8116 526.145 22.5378C524.858 24.3463 524.266 26.2369 524.266 28.2919V39.8001C524.266 41.8549 524.96 43.7455 526.247 45.3898C527.432 47.1159 529.117 48.5134 531.293 49.4996C533.372 50.4862 535.649 50.9793 538.121 50.9793H572.661C573.837 50.9793 574.792 51.9341 574.792 53.1114V61.3421C574.792 62.5193 573.837 63.4742 572.661 63.4742H538.121H526.795C525.619 63.4742 524.664 64.4285 524.664 65.6058V69.8018C524.664 71.0446 524.664 71.5178 524.664 72.1922C524.664 73.3694 525.619 74.3247 526.795 74.3247C528.294 74.3247 529.993 74.3247 531.293 74.3247Z" fill="#DCFC00"/>
<path d="M602.725 16.7734C601.549 16.7734 600.594 17.728 600.594 18.9054V72.2052C600.594 73.3825 601.549 74.3373 602.725 74.3373H611.796C612.968 74.3373 613.923 73.3864 613.927 72.2114C613.941 66.5024 613.976 51.2458 613.919 50.9826C613.852 50.6593 657.086 50.5205 657.086 50.9826C657.086 51.3581 657.086 66.5139 657.086 72.2061C657.086 73.3838 658.042 74.3373 659.218 74.3373H668.284C669.461 74.3373 670.416 73.3825 670.416 72.2052V18.9054C670.416 17.728 669.461 16.7734 668.284 16.7734H659.218C658.042 16.7734 657.086 17.727 657.086 18.9045C657.086 24.5956 657.086 39.7462 657.086 40.1279C657.086 40.5981 613.919 41.1833 613.919 40.1279C613.919 39.2738 613.919 24.5015 613.919 18.9019C613.919 17.7244 612.963 16.7734 611.787 16.7734H602.725Z" fill="#DCFC00"/>
<path fill-rule="evenodd" clip-rule="evenodd" d="M701.004 22.1978C699.775 23.92 699.24 25.5433 698.554 27.634C698.519 27.7395 698.483 27.8462 698.448 27.9542C693.482 43.0468 686.574 65.1499 684.455 71.9428C684.137 72.9715 684.906 74.005 685.986 74.005H695.246C695.972 74.005 696.604 73.5234 696.794 72.8246C697.855 68.882 701.274 56.3531 701.986 55.1714L705.02 43.4983C705.007 43.4966 705.002 43.4948 705.002 43.493C705.002 43.3833 708.368 32.0488 709.46 28.3707C709.663 27.6925 710.283 27.2324 710.99 27.2324H733.54C734.239 27.2324 734.858 27.6841 735.066 28.3524C736.212 32.0303 739.781 43.5107 739.781 43.6244C739.781 43.7712 729.038 43.7548 719.495 43.6889L715.634 54.9543C727.132 54.8552 741.784 54.7597 741.948 54.9229C742.173 55.1489 746.052 68.7476 747.215 72.8476C747.409 73.5358 748.037 74.005 748.754 74.005H757.413C758.47 74.005 759.235 72.9976 758.952 71.9786L746.741 27.9542C745.91 25.5023 744.973 24.0069 743.778 22.1978C742.483 20.4709 741.868 19.7757 739.781 18.7066C739.245 18.465 738.816 18.2459 738.441 18.0526C737.277 17.4568 736.596 17.1076 734.717 17.1076H709.801C709.579 17.1076 709.385 17.107 709.204 17.1064C708.262 17.1034 707.788 17.1018 707.342 17.2018C706.895 17.3016 706.47 17.5023 705.626 17.9031C705.555 17.9354 705.484 17.9689 705.409 18.0039C703.224 19.0729 702.198 20.4709 701.004 22.1978Z" fill="#DCFC00"/>
<path d="M411.416 112.351C412.798 112.718 413.878 113.139 414.655 113.614C415.433 114.068 416.016 114.694 416.404 115.493C416.793 116.292 416.987 117.469 416.987 119.024C416.987 120.168 416.836 121.183 416.534 122.068C416.232 122.954 415.735 123.72 415.044 124.368C414.375 124.994 413.457 125.48 412.291 125.826C411.146 126.15 409.764 126.312 408.145 126.312C407.043 126.312 405.845 126.236 404.549 126.085C403.254 125.955 402.109 125.729 401.116 125.405C400.878 125.318 400.673 125.178 400.5 124.984C400.328 124.768 400.241 124.519 400.241 124.239C400.241 123.872 400.414 123.148 400.759 122.068C400.846 121.766 400.986 121.529 401.18 121.356C401.396 121.183 401.645 121.097 401.925 121.097C402.163 121.097 402.606 121.194 403.254 121.388C404.722 121.799 406.395 122.004 408.274 122.004C409.483 122.004 410.326 121.799 410.801 121.388C411.276 120.978 411.513 120.417 411.513 119.704C411.513 118.948 411.341 118.387 410.995 118.02C410.671 117.652 409.991 117.35 408.954 117.113L406.266 116.53C404.387 116.119 403.005 115.385 402.12 114.327C401.234 113.269 400.792 111.736 400.792 109.727C400.792 108.648 400.932 107.676 401.213 106.812C401.515 105.948 402.001 105.203 402.67 104.577C403.34 103.951 404.225 103.465 405.327 103.12C406.428 102.774 407.756 102.601 409.311 102.601C410.326 102.601 411.405 102.666 412.55 102.796C413.716 102.904 414.666 103.076 415.4 103.314C415.638 103.379 415.832 103.508 415.983 103.703C416.156 103.897 416.242 104.145 416.242 104.448C416.242 104.88 416.113 105.614 415.854 106.65C415.789 106.909 415.67 107.125 415.497 107.298C415.346 107.449 415.163 107.525 414.947 107.525C414.601 107.525 414.18 107.471 413.683 107.363C412.107 107.082 410.531 106.942 408.954 106.942C407.14 106.942 406.234 107.708 406.234 109.242C406.234 109.954 406.439 110.494 406.849 110.861C407.281 111.228 407.853 111.498 408.566 111.671L411.416 112.351ZM429.42 124.854C429.42 125.2 429.312 125.47 429.096 125.664C428.902 125.837 428.664 125.923 428.383 125.923H425.079C424.82 125.923 424.594 125.837 424.399 125.664C424.226 125.491 424.14 125.221 424.14 124.854V107.071C424.14 105.625 424.432 104.588 425.015 103.962C425.619 103.336 426.613 103.022 427.995 103.022H430.877C434.16 103.022 436.47 103.303 437.809 103.865C438.954 104.34 439.785 105.117 440.303 106.197C440.822 107.276 441.081 108.54 441.081 109.987C441.081 111.844 440.714 113.301 439.979 114.359C439.267 115.396 438.187 116.13 436.74 116.562C435.337 116.972 433.458 117.177 431.104 117.177H429.42V124.854ZM429.42 113.064H431.299C432.551 113.064 433.49 112.956 434.117 112.74C434.592 112.567 434.959 112.265 435.218 111.833C435.499 111.401 435.639 110.883 435.639 110.278C435.639 108.831 435.164 107.946 434.214 107.622C433.631 107.428 432.659 107.33 431.299 107.33H430.327C429.722 107.33 429.42 107.676 429.42 108.367V113.064ZM450.579 120.481L449.219 124.789C449.089 125.221 448.938 125.534 448.765 125.729C448.592 125.901 448.344 125.988 448.02 125.988C447.48 125.988 446.746 125.966 445.818 125.923C444.911 125.901 444.349 125.858 444.133 125.793C444.069 125.772 443.961 125.718 443.809 125.631C443.68 125.524 443.615 125.34 443.615 125.081C443.615 124.822 443.701 124.455 443.874 123.98L449.867 106.132C450.169 105.225 450.46 104.566 450.741 104.156C451.043 103.724 451.443 103.411 451.94 103.217C452.436 103.001 453.106 102.893 453.948 102.893H455.211C456.183 102.893 456.885 103.033 457.317 103.314C457.748 103.595 458.062 103.962 458.256 104.415C458.45 104.847 458.645 105.365 458.839 105.97L464.767 123.915C464.918 124.325 464.993 124.703 464.993 125.048C464.993 125.2 464.95 125.351 464.864 125.502C464.777 125.631 464.659 125.729 464.507 125.793C464.227 125.923 462.942 125.988 460.653 125.988C460.394 125.988 460.156 125.923 459.94 125.793C459.724 125.664 459.53 125.329 459.357 124.789L457.964 120.481H450.579ZM451.875 116.108H456.831C456.766 115.871 456.669 115.536 456.539 115.104C456.41 114.672 456.064 113.517 455.503 111.638C454.963 109.738 454.585 108.324 454.369 107.395C454.11 108.41 453.278 111.315 451.875 116.108ZM478.777 124.854C478.777 125.2 478.669 125.47 478.453 125.664C478.259 125.837 478.032 125.923 477.773 125.923H474.404C474.145 125.923 473.918 125.837 473.724 125.664C473.53 125.47 473.432 125.2 473.432 124.854V107.557H468.217C467.548 107.557 467.213 107.287 467.213 106.747V103.994C467.213 103.735 467.267 103.508 467.375 103.314C467.505 103.12 467.786 103.022 468.217 103.022H484.024C484.37 103.022 484.618 103.098 484.769 103.249C484.942 103.4 485.029 103.649 485.029 103.994V106.747C485.029 107.287 484.694 107.557 484.024 107.557H478.777V124.854ZM475.765 127.478H476.963C477.74 127.478 478.129 127.92 478.129 128.806C478.129 129.713 477.967 130.685 477.643 131.721C477.341 132.779 476.844 133.708 476.153 134.507C475.765 134.982 475.365 135.219 474.955 135.219C474.696 135.219 474.35 135.122 473.918 134.928C473.53 134.712 473.335 134.431 473.335 134.086C473.335 133.826 473.422 133.524 473.594 133.179C473.854 132.596 474.037 131.98 474.145 131.332C474.275 130.706 474.35 129.864 474.372 128.806C474.372 128.352 474.48 128.018 474.696 127.802C474.912 127.586 475.268 127.478 475.765 127.478ZM496.171 124.854C496.171 125.2 496.063 125.47 495.847 125.664C495.631 125.837 495.393 125.923 495.134 125.923H491.798C491.539 125.923 491.312 125.837 491.118 125.664C490.945 125.491 490.858 125.221 490.858 124.854V104.059C490.858 103.757 490.934 103.508 491.085 103.314C491.258 103.098 491.506 102.99 491.83 102.99H495.231C495.857 102.99 496.171 103.336 496.171 104.027V124.854ZM509.785 124.854C509.785 125.2 509.677 125.47 509.461 125.664C509.245 125.837 509.008 125.923 508.749 125.923H505.412C505.153 125.923 504.926 125.837 504.732 125.664C504.559 125.491 504.473 125.221 504.473 124.854V104.059C504.473 103.757 504.548 103.508 504.7 103.314C504.872 103.098 505.121 102.99 505.445 102.99H508.846C509.472 102.99 509.785 103.336 509.785 104.027V124.854ZM533.724 124.854C533.724 125.2 533.616 125.47 533.4 125.664C533.184 125.837 532.947 125.923 532.688 125.923H529.351C529.092 125.923 528.865 125.837 528.671 125.664C528.498 125.491 528.412 125.221 528.412 124.854V104.059C528.412 103.757 528.488 103.508 528.639 103.314C528.812 103.098 529.06 102.99 529.384 102.99H532.785C533.411 102.99 533.724 103.336 533.724 104.027V124.854ZM547.177 124.854C547.177 125.2 547.069 125.47 546.853 125.664C546.637 125.837 546.399 125.923 546.14 125.923H542.966C542.707 125.923 542.48 125.837 542.286 125.664C542.113 125.491 542.026 125.221 542.026 124.854V106.423C542.026 105.236 542.307 104.35 542.869 103.767C543.43 103.184 544.337 102.893 545.589 102.893H547.047C547.803 102.893 548.386 103.012 548.796 103.249C549.228 103.487 549.552 103.8 549.768 104.188C549.984 104.556 550.189 104.955 550.383 105.387C553.407 112.146 555.382 116.799 556.311 119.348C556.268 118.203 556.235 116.918 556.214 115.493C556.192 114.046 556.181 110.321 556.181 104.318C556.181 103.929 556.279 103.616 556.473 103.379C556.667 103.12 556.937 102.99 557.283 102.99H560.263C560.608 102.99 560.857 103.109 561.008 103.346C561.18 103.562 561.267 103.854 561.267 104.221V123.202C561.267 124.325 560.986 125.102 560.425 125.534C559.885 125.945 559.161 126.15 558.254 126.15H557.088C556.03 126.15 555.231 125.945 554.691 125.534C554.152 125.124 553.644 124.368 553.169 123.267C550.038 116.162 548.008 111.423 547.079 109.047C547.144 111.012 547.177 116.281 547.177 124.854ZM578.91 124.854C578.91 125.2 578.802 125.47 578.586 125.664C578.391 125.837 578.165 125.923 577.906 125.923H574.537C574.278 125.923 574.051 125.837 573.857 125.664C573.662 125.47 573.565 125.2 573.565 124.854V107.557H568.35C567.681 107.557 567.346 107.287 567.346 106.747V103.994C567.346 103.735 567.4 103.508 567.508 103.314C567.638 103.12 567.918 103.022 568.35 103.022H584.157C584.503 103.022 584.751 103.098 584.902 103.249C585.075 103.4 585.161 103.649 585.161 103.994V106.747C585.161 107.287 584.827 107.557 584.157 107.557H578.91V124.854ZM604.887 125.891H594.457C593.248 125.891 592.33 125.599 591.704 125.016C591.099 124.433 590.797 123.515 590.797 122.263V106.78C590.797 105.549 591.11 104.62 591.736 103.994C592.362 103.346 593.269 103.022 594.457 103.022H604.304C604.649 103.022 604.898 103.098 605.049 103.249C605.222 103.4 605.308 103.649 605.308 103.994V106.747C605.308 107.287 604.973 107.557 604.304 107.557H597.113C596.444 107.557 596.109 107.946 596.109 108.723V111.8H603.559C603.904 111.8 604.153 111.876 604.304 112.027C604.477 112.178 604.563 112.427 604.563 112.772V115.525C604.563 115.785 604.466 115.99 604.272 116.141C604.099 116.292 603.861 116.368 603.559 116.368H596.109V120.157C596.109 120.589 596.195 120.902 596.368 121.097C596.562 121.269 596.876 121.356 597.307 121.356H604.887C605.233 121.356 605.481 121.431 605.632 121.583C605.805 121.734 605.891 121.982 605.891 122.328V125.048C605.891 125.61 605.556 125.891 604.887 125.891ZM626.783 125.891H616.547C615.403 125.891 614.518 125.61 613.891 125.048C613.265 124.465 612.952 123.591 612.952 122.425V104.059C612.952 103.757 613.028 103.508 613.179 103.314C613.351 103.098 613.6 102.99 613.924 102.99H617.325C617.951 102.99 618.264 103.336 618.264 104.027V120.222C618.264 120.611 618.35 120.902 618.523 121.097C618.718 121.269 619.02 121.356 619.43 121.356H626.783C627.129 121.356 627.377 121.431 627.528 121.583C627.701 121.734 627.787 121.982 627.787 122.328V125.048C627.787 125.308 627.69 125.513 627.496 125.664C627.323 125.815 627.085 125.891 626.783 125.891ZM638.838 124.854C638.838 125.2 638.73 125.47 638.514 125.664C638.298 125.837 638.06 125.923 637.801 125.923H634.465C634.206 125.923 633.979 125.837 633.785 125.664C633.612 125.491 633.525 125.221 633.525 124.854V104.059C633.525 103.757 633.601 103.508 633.752 103.314C633.925 103.098 634.173 102.99 634.497 102.99H637.898C638.524 102.99 638.838 103.336 638.838 104.027V124.854ZM664.631 123.494C664.631 124.055 664.523 124.455 664.307 124.692C664.091 124.908 663.811 125.081 663.465 125.21C662.752 125.513 661.64 125.772 660.129 125.988C658.639 126.204 657.084 126.312 655.464 126.312C653.067 126.312 651.2 125.901 649.861 125.081C648.543 124.239 647.572 122.997 646.946 121.356C646.319 119.693 646.006 117.512 646.006 114.813C646.006 112.675 646.201 110.839 646.589 109.306C646.978 107.752 647.583 106.488 648.403 105.517C649.245 104.523 650.325 103.789 651.642 103.314C652.981 102.839 654.579 102.601 656.436 102.601C657.516 102.601 658.639 102.666 659.805 102.796C660.993 102.904 661.91 103.033 662.558 103.184C662.817 103.249 663.012 103.368 663.141 103.541C663.292 103.713 663.368 103.908 663.368 104.124C663.368 104.426 663.314 104.869 663.206 105.452C663.098 106.035 662.979 106.51 662.85 106.877C662.72 107.222 662.483 107.395 662.137 107.395L661.003 107.266C659.664 107.028 658.347 106.909 657.052 106.909C655.821 106.909 654.806 107.104 654.007 107.492C653.229 107.881 652.603 108.594 652.128 109.63C651.675 110.667 651.448 112.243 651.448 114.359C651.448 116.173 651.599 117.631 651.901 118.732C652.204 119.812 652.711 120.632 653.424 121.194C654.136 121.755 655.205 122.036 656.63 122.036C657.861 122.036 658.865 121.928 659.643 121.712C660.01 121.604 660.194 121.345 660.194 120.935V117.825H656.922C656.706 117.825 656.533 117.76 656.404 117.631C656.296 117.48 656.242 117.307 656.242 117.113V114.068C656.242 113.852 656.307 113.668 656.436 113.517C656.566 113.366 656.738 113.29 656.954 113.29H663.789C664.048 113.29 664.253 113.366 664.404 113.517C664.556 113.668 664.631 113.873 664.631 114.133V123.494ZM686.295 125.891H675.865C674.656 125.891 673.738 125.599 673.112 125.016C672.507 124.433 672.205 123.515 672.205 122.263V106.78C672.205 105.549 672.518 104.62 673.144 103.994C673.771 103.346 674.678 103.022 675.865 103.022H685.712C686.058 103.022 686.306 103.098 686.457 103.249C686.63 103.4 686.716 103.649 686.716 103.994V106.747C686.716 107.287 686.382 107.557 685.712 107.557H678.521C677.852 107.557 677.517 107.946 677.517 108.723V111.8H684.967C685.313 111.8 685.561 111.876 685.712 112.027C685.885 112.178 685.971 112.427 685.971 112.772V115.525C685.971 115.785 685.874 115.99 685.68 116.141C685.507 116.292 685.27 116.368 684.967 116.368H677.517V120.157C677.517 120.589 677.604 120.902 677.776 121.097C677.971 121.269 678.284 121.356 678.716 121.356H686.295C686.641 121.356 686.889 121.431 687.04 121.583C687.213 121.734 687.299 121.982 687.299 122.328V125.048C687.299 125.61 686.965 125.891 686.295 125.891ZM699.51 124.854C699.51 125.2 699.402 125.47 699.187 125.664C698.971 125.837 698.733 125.923 698.474 125.923H695.3C695.04 125.923 694.814 125.837 694.619 125.664C694.447 125.491 694.36 125.221 694.36 124.854V106.423C694.36 105.236 694.641 104.35 695.202 103.767C695.764 103.184 696.671 102.893 697.923 102.893H699.381C700.137 102.893 700.72 103.012 701.13 103.249C701.562 103.487 701.886 103.8 702.102 104.188C702.318 104.556 702.523 104.955 702.717 105.387C705.74 112.146 707.716 116.799 708.645 119.348C708.602 118.203 708.569 116.918 708.548 115.493C708.526 114.046 708.515 110.321 708.515 104.318C708.515 103.929 708.612 103.616 708.807 103.379C709.001 103.12 709.271 102.99 709.617 102.99H712.596C712.942 102.99 713.19 103.109 713.341 103.346C713.514 103.562 713.601 103.854 713.601 104.221V123.202C713.601 124.325 713.32 125.102 712.758 125.534C712.219 125.945 711.495 126.15 710.588 126.15H709.422C708.364 126.15 707.565 125.945 707.025 125.534C706.485 125.124 705.978 124.368 705.503 123.267C702.372 116.162 700.342 111.423 699.413 109.047C699.478 111.012 699.51 116.281 699.51 124.854ZM731.244 124.854C731.244 125.2 731.136 125.47 730.92 125.664C730.725 125.837 730.499 125.923 730.239 125.923H726.871C726.612 125.923 726.385 125.837 726.19 125.664C725.996 125.47 725.899 125.2 725.899 124.854V107.557H720.684C720.015 107.557 719.68 107.287 719.68 106.747V103.994C719.68 103.735 719.734 103.508 719.842 103.314C719.971 103.12 720.252 103.022 720.684 103.022H736.491C736.836 103.022 737.085 103.098 737.236 103.249C737.409 103.4 737.495 103.649 737.495 103.994V106.747C737.495 107.287 737.16 107.557 736.491 107.557H731.244V124.854ZM757.221 125.891H746.791C745.581 125.891 744.664 125.599 744.037 125.016C743.433 124.433 743.131 123.515 743.131 122.263V106.78C743.131 105.549 743.444 104.62 744.07 103.994C744.696 103.346 745.603 103.022 746.791 103.022H756.638C756.983 103.022 757.232 103.098 757.383 103.249C757.555 103.4 757.642 103.649 757.642 103.994V106.747C757.642 107.287 757.307 107.557 756.638 107.557H749.447C748.777 107.557 748.443 107.946 748.443 108.723V111.8H755.893C756.238 111.8 756.487 111.876 756.638 112.027C756.81 112.178 756.897 112.427 756.897 112.772V115.525C756.897 115.785 756.8 115.99 756.605 116.141C756.433 116.292 756.195 116.368 755.893 116.368H748.443V120.157C748.443 120.589 748.529 120.902 748.702 121.097C748.896 121.269 749.209 121.356 749.641 121.356H757.221C757.566 121.356 757.815 121.431 757.966 121.583C758.138 121.734 758.225 121.982 758.225 122.328V125.048C758.225 125.61 757.89 125.891 757.221 125.891Z" fill="#DCFC00"/>
</g>
<defs>
<filter id="filter0_d_1586_1550" x="0.6" y="0.6" width="766.816" height="150.519" filterUnits="userSpaceOnUse" color-interpolation-filters="sRGB">
<feFlood flood-opacity="0" result="BackgroundImageFix"/>
<feColorMatrix in="SourceAlpha" type="matrix" values="0 0 0 0 0 0 0 0 0 0 0 0 0 0 0 0 0 0 127 0" result="hardAlpha"/>
<feOffset/>
<feGaussianBlur stdDeviation="4.2"/>
<feComposite in2="hardAlpha" operator="out"/>
<feColorMatrix type="matrix" values="0 0 0 0 0.543269 0 0 0 0 0.543269 0 0 0 0 0.543269 0 0 0 0.79 0"/>
<feBlend mode="normal" in2="BackgroundImageFix" result="effect1_dropShadow_1586_1550"/>
<feBlend mode="normal" in="SourceGraphic" in2="effect1_dropShadow_1586_1550" result="shape"/>
</filter>
</defs>
</svg>
