<svg width="49" height="50" viewBox="0 0 49 50" fill="none" xmlns="http://www.w3.org/2000/svg">
<g clip-path="url(#clip0_1039_7746)">
<path d="M42.4844 0.450195H6.0625C4.38482 0.450195 3.02734 1.80767 3.02734 3.48535V45.9775C3.02734 47.6552 4.38482 49.0127 6.0625 49.0127H21.2383V36.8721H27.3086V49.0127H42.4844C44.1621 49.0127 45.5195 47.6552 45.5195 45.9775V3.48535C45.5195 1.80767 44.1621 0.450195 42.4844 0.450195ZM21.2383 30.8018H15.168V24.7314H21.2383V30.8018ZM21.2383 18.6611H15.168V12.5908H21.2383V18.6611ZM33.3789 30.8018H27.3086V24.7314H33.3789V30.8018ZM33.3789 18.6611H27.3086V12.5908H33.3789V18.6611Z" fill="#2C2C2C"/>
</g>
<defs>
<clipPath id="clip0_1039_7746">
<rect width="48.5625" height="48.5625" fill="white" transform="translate(0 0.451172)"/>
</clipPath>
</defs>
</svg>
