<svg width="44" height="44" viewBox="0 0 44 44" fill="none" xmlns="http://www.w3.org/2000/svg">
<rect x="0.5" y="0.5" width="43" height="43" rx="4.5" fill="white" fill-opacity="0.1"/>
<rect x="0.5" y="0.5" width="43" height="43" rx="4.5" stroke="white"/>
<g clip-path="url(#clip0_1352_1341)">
<path fill-rule="evenodd" clip-rule="evenodd" d="M25.6641 14.4574V29.5445C25.6641 30.3941 24.9011 31.0404 24.063 30.9007L16.196 29.5896C15.312 29.4422 14.6641 28.6774 14.6641 27.7812V16.2206C14.6641 15.3244 15.312 14.5596 16.196 14.4123L24.063 13.1011C24.9011 12.9614 25.6641 13.6077 25.6641 14.4574ZM27.4974 15.5843C28.4639 15.5843 29.2557 16.3322 29.3257 17.2808L29.3307 17.4176V26.5843C29.3307 27.5508 28.5829 28.3426 27.6342 28.4126L27.4974 28.4176H26.5807V15.5843H27.4974ZM21.5391 20.626C20.7797 20.626 20.1641 21.2416 20.1641 22.001C20.1641 22.7603 20.7797 23.376 21.5391 23.376C22.2984 23.376 22.9141 22.7603 22.9141 22.001C22.9141 21.2416 22.2984 20.626 21.5391 20.626Z" fill="white"/>
</g>
<defs>
<clipPath id="clip0_1352_1341">
<rect width="22" height="22" fill="white" transform="translate(11 11)"/>
</clipPath>
</defs>
</svg>
