<?xml version="1.0" encoding="utf-8"?>
<!-- Generator: Adobe Illustrator 24.2.3, SVG Export Plug-In . SVG Version: 6.00 Build 0)  -->
<svg version="1.1"
	 id="svg8" xmlns:cc="http://creativecommons.org/ns#" xmlns:dc="http://purl.org/dc/elements/1.1/" xmlns:rdf="http://www.w3.org/1999/02/22-rdf-syntax-ns#" xmlns:svg="http://www.w3.org/2000/svg"
	 xmlns="http://www.w3.org/2000/svg" xmlns:xlink="http://www.w3.org/1999/xlink" x="0px" y="0px" viewBox="0 0 730.4 359.2"
	 style="enable-background:new 0 0 730.4 359.2;" xml:space="preserve">
<style type="text/css">
	.st0{fill:#363C71;}
	.st1{fill:url(#SVGID_1_);}
	.st2{fill:url(#SVGID_2_);}
	.st3{fill:url(#SVGID_3_);}
	.st4{fill:url(#SVGID_4_);}
	.st5{fill:#525CA8;stroke:#414888;stroke-width:1;stroke-miterlimit:15.1181;}
	.st6{fill:#B7BBDA;fill-opacity:0.4082;stroke:#414888;stroke-width:1;stroke-miterlimit:15.1181;}
	.st7{fill:#0D0D0D;}
	.st8{fill:url(#path14224_2_);}
	.st9{fill:#0A0A0A;}
	.st10{fill:#0A0D13;}
	.st11{fill:#091427;}
	.st12{filter:url(#filter5343-0);}
	.st13{opacity:0.5561;fill-rule:evenodd;clip-rule:evenodd;fill:#235A91;}
	.st14{filter:url(#filter5347-6);}
</style>
<filter  height="1.1646279" id="filter5347-6" style="color-interpolation-filters:sRGB" width="1.2175593" x="-0.10877967" y="-0.082313926">
	<feGaussianBlur  id="feGaussianBlur5349-2" stdDeviation="0.030983682"></feGaussianBlur>
</filter>
<filter  height="1.164929" id="filter5343-0" style="color-interpolation-filters:sRGB" width="1.3845524" x="-0.19227619" y="-0.082464501">
	<feGaussianBlur  id="feGaussianBlur5345-8" stdDeviation="0.030983682"></feGaussianBlur>
</filter>
<g>
	<g>
		<path class="st0" d="M221.8,0.8c0-0.5,0.4-0.8,0.8-0.8h-1.1c-0.5,0-0.8,0.4-0.8,0.8v1.5h1.1V0.8z"/>
		<path class="st0" d="M307.2,0.8v1.5h0.7V0.8c0-0.5-0.4-0.8-0.8-0.8h-0.7C306.9,0,307.2,0.4,307.2,0.8z"/>
		<path class="st0" d="M221.8,0.8v1.5h85.4V0.8c0-0.5-0.4-0.8-0.8-0.8h-83.8C222.2,0,221.8,0.4,221.8,0.8z"/>
		
			<linearGradient id="SVGID_1_" gradientUnits="userSpaceOnUse" x1="-74.1111" y1="362.9968" x2="-74.1111" y2="340.4554" gradientTransform="matrix(2.314293e-16 -3.7795 -3.7795 -2.314293e-16 1593.9301 -278.9252)">
			<stop  offset="0" style="stop-color:#D3D3E8"/>
			<stop  offset="0.2673" style="stop-color:#707498"/>
			<stop  offset="0.9112" style="stop-color:#5B5D84"/>
			<stop  offset="1" style="stop-color:#4A5088"/>
		</linearGradient>
		<path class="st1" d="M221.8,0.8v1.5h85.4V0.8c0-0.5-0.4-0.8-0.8-0.8h-83.8C222.2,0,221.8,0.4,221.8,0.8z"/>
		<path class="st0" d="M255.5,357.3c0,0.5-0.4,0.8-0.8,0.8h0.7c0.5,0,0.8-0.4,0.8-0.8v-1.5h-0.7V357.3z"/>
		<path class="st0" d="M202,357.3v-1.5h-1.1v1.5c0,0.5,0.4,0.8,0.8,0.8h1.1C202.4,358.2,202,357.8,202,357.3z"/>
		<path class="st0" d="M255.5,357.3v-1.5H202v1.5c0,0.5,0.4,0.8,0.8,0.8h51.9C255.2,358.2,255.5,357.8,255.5,357.3z"/>
		
			<linearGradient id="SVGID_2_" gradientUnits="userSpaceOnUse" x1="-76.1989" y1="362.9968" x2="-76.1989" y2="348.8043" gradientTransform="matrix(2.314293e-16 -3.7795 -3.7795 -2.314293e-16 1574.1086 68.9857)">
			<stop  offset="0" style="stop-color:#D3D3E8"/>
			<stop  offset="0.2673" style="stop-color:#707498"/>
			<stop  offset="0.9112" style="stop-color:#5B5D84"/>
			<stop  offset="1" style="stop-color:#4A5088"/>
		</linearGradient>
		<path class="st2" d="M255.5,357.3v-1.5H202v1.5c0,0.5,0.4,0.8,0.8,0.8h51.9C255.2,358.2,255.5,357.8,255.5,357.3z"/>
		<path class="st0" d="M272.6,357.3v-1.5h-1.1v1.5c0,0.5,0.4,0.8,0.8,0.8h1.1C273,358.2,272.6,357.8,272.6,357.3z"/>
		<path class="st0" d="M326.2,357.3c0,0.5-0.4,0.8-0.8,0.8h0.7c0.5,0,0.8-0.4,0.8-0.8v-1.5h-0.7V357.3z"/>
		<path class="st0" d="M326.2,357.3v-1.5h-53.5v1.5c0,0.5,0.4,0.8,0.8,0.8h51.9C325.8,358.2,326.2,357.8,326.2,357.3z"/>
		
			<linearGradient id="SVGID_3_" gradientUnits="userSpaceOnUse" x1="-76.1989" y1="362.9968" x2="-76.1989" y2="348.8043" gradientTransform="matrix(2.314293e-16 -3.7795 -3.7795 -2.314293e-16 1644.7336 68.9857)">
			<stop  offset="0" style="stop-color:#D3D3E8"/>
			<stop  offset="0.2673" style="stop-color:#707498"/>
			<stop  offset="0.9112" style="stop-color:#5B5D84"/>
			<stop  offset="1" style="stop-color:#4A5088"/>
		</linearGradient>
		<path class="st3" d="M326.2,357.3v-1.5h-53.5v1.5c0,0.5,0.4,0.8,0.8,0.8h51.9C325.8,358.2,326.2,357.8,326.2,357.3z"/>
		<path class="st0" d="M150,357.3v-1.5h-1.1v1.5c0,0.5,0.4,0.8,0.8,0.8h1.1C150.4,358.2,150,357.8,150,357.3z"/>
		<path class="st0" d="M176,357.3c0,0.5-0.4,0.8-0.8,0.8h0.7c0.5,0,0.8-0.4,0.8-0.8v-1.5H176V357.3z"/>
		<path class="st0" d="M176,357.3v-1.5h-26v1.5c0,0.5,0.4,0.8,0.8,0.8h24.3C175.6,358.2,176,357.8,176,357.3z"/>
		
			<linearGradient id="SVGID_4_" gradientUnits="userSpaceOnUse" x1="-76.1989" y1="362.9968" x2="-76.1989" y2="356.1486" gradientTransform="matrix(2.314293e-16 -3.7795 -3.7795 -2.314293e-16 1522.1189 68.9857)">
			<stop  offset="0" style="stop-color:#D3D3E8"/>
			<stop  offset="0.2673" style="stop-color:#707498"/>
			<stop  offset="0.9112" style="stop-color:#5B5D84"/>
			<stop  offset="1" style="stop-color:#4A5088"/>
		</linearGradient>
		<path class="st4" d="M176,357.3v-1.5h-26v1.5c0,0.5,0.4,0.8,0.8,0.8h24.3C175.6,358.2,176,357.8,176,357.3z"/>
		<rect x="82.7" y="351.7" class="st5" width="66.2" height="4.1"/>
		<path class="st5" d="M725.4,293.6c0,32.1-26,58.1-58.1,58.1h-12.6v4.1H669c33.2,0,60.1-26.9,60.1-60.1v-10.9h-3.8V293.6z"/>
		<rect x="176.7" y="351.7" class="st5" width="24.2" height="4.1"/>
		<path class="st5" d="M647.6,6.5V2.4h7.1v4.1h12.6c32.1,0,58.1,26,58.1,58.1v213.1h3.8V62.5c0-33.2-26.9-60.1-60.1-60.1H308v4.1
			H647.6z"/>
		<rect x="256.3" y="351.7" class="st5" width="15.3" height="4.1"/>
		<rect x="82.7" y="2.4" class="st5" width="138" height="4.1"/>
		<path class="st5" d="M5,64.5C5,32.5,31,6.5,63,6.5h12.6V2.4H61.3C28.1,2.4,1.2,29.3,1.2,62.5v10.9H5V64.5z"/>
		<path class="st5" d="M63,351.7C31,351.7,5,325.7,5,293.6V80.5H1.2v215.2c0,33.2,26.9,60.1,60.1,60.1h14.3v-4.1H63z"/>
		<rect x="326.9" y="351.7" class="st5" width="320.7" height="4.1"/>
		<rect x="307.2" y="2.4" class="st5" width="0.7" height="4.1"/>
		<rect x="220.7" y="2.4" class="st5" width="1.1" height="4.1"/>
		<rect x="221.8" y="2.4" class="st5" width="85.4" height="4.1"/>
		<rect x="200.9" y="351.7" class="st5" width="1.1" height="4.1"/>
		<rect x="255.5" y="351.7" class="st5" width="0.7" height="4.1"/>
		<rect x="202" y="351.7" class="st5" width="53.5" height="4.1"/>
		<rect x="271.5" y="351.7" class="st5" width="1.1" height="4.1"/>
		<rect x="326.2" y="351.7" class="st5" width="0.7" height="4.1"/>
		<rect x="272.6" y="351.7" class="st5" width="53.5" height="4.1"/>
		<rect x="176" y="351.7" class="st5" width="0.7" height="4.1"/>
		<rect x="148.9" y="351.7" class="st5" width="1.1" height="4.1"/>
		<rect x="150" y="351.7" class="st5" width="26" height="4.1"/>
		<rect x="75.6" y="355.8" class="st6" width="7.1" height="0.5"/>
		<rect x="729.2" y="277.7" class="st6" width="0.5" height="7.1"/>
		<rect x="75.6" y="1.9" class="st6" width="7.1" height="0.5"/>
		<rect x="0.7" y="73.4" class="st6" width="0.5" height="7.1"/>
		<rect x="647.6" y="355.8" class="st6" width="7.1" height="0"/>
		<rect x="647.6" y="351.7" class="st6" width="7.1" height="4.1"/>
		<rect x="725.4" y="277.7" class="st6" width="3.8" height="7.1"/>
		<rect x="75.6" y="351.7" class="st6" width="7.1" height="4.1"/>
		<rect x="75.6" y="2.4" class="st6" width="7.1" height="4.1"/>
		<rect x="647.6" y="2.4" class="st6" width="7.1" height="4.1"/>
		<rect x="1.2" y="73.4" class="st6" width="3.8" height="7.1"/>
		<path class="st7" d="M647.6,12V6.5H308v2.9c0,0.5-0.4,0.8-0.8,0.8h-0.7h-83.8h-1.1c-0.5,0-0.8-0.4-0.8-0.8V6.5h-138V12H647.6z"/>
		<path class="st7" d="M61.4,346.2c-29.1,0-52.7-23.6-52.7-52.7v-213H5v213.1c0,32.1,26,58.1,58.1,58.1h12.6v-5.5H61.4z"/>
		<path class="st7" d="M82.7,346.2v5.5h66.2v-2.9c0-0.5,0.4-0.8,0.8-0.8h1.1h24.3h0.7c0.5,0,0.8,0.4,0.8,0.8v2.9h24.2v-2.9
			c0-0.5,0.4-0.8,0.8-0.8h1.1h51.9h0.7c0.5,0,0.8,0.4,0.8,0.8v2.9h15.3v-2.9c0-0.5,0.4-0.8,0.8-0.8h1.1h51.9h0.7
			c0.5,0,0.8,0.4,0.8,0.8v2.9h320.7v-5.5H82.7z"/>
		<path class="st7" d="M667.3,6.5h-12.6V12H669c29.1,0,52.7,23.6,52.7,52.7v213h3.7V64.5C725.4,32.5,699.4,6.5,667.3,6.5z"/>
		<path class="st7" d="M721.6,293.5c0,29.1-23.6,52.7-52.7,52.7h-14.2v5.5h12.6c32.1,0,58.1-26,58.1-58.1v-8.8h-3.7V293.5z"/>
		<path class="st7" d="M8.7,64.7C8.7,35.6,32.3,12,61.4,12h14.2V6.5H63C31,6.5,5,32.5,5,64.5v8.8h3.7V64.7z"/>
		<path class="st7" d="M306.4,10.3h0.7c0.5,0,0.8-0.4,0.8-0.8V6.5h-0.7v2.9C307.2,9.9,306.9,10.3,306.4,10.3z"/>
		<path class="st7" d="M221.6,10.3h1.1c-0.5,0-0.8-0.4-0.8-0.8V6.5h-1.1v2.9C220.7,9.9,221.1,10.3,221.6,10.3z"/>
		<path class="st7" d="M222.6,10.3h83.8c0.5,0,0.8-0.4,0.8-0.8V6.5h-85.4v2.9C221.8,9.9,222.2,10.3,222.6,10.3z"/>
		<path class="st7" d="M255.5,347.9h-0.7c0.5,0,0.8,0.4,0.8,0.8v2.9h0.7v-2.9C256.3,348.3,255.9,347.9,255.5,347.9z"/>
		<path class="st7" d="M202.8,347.9h-1.1c-0.5,0-0.8,0.4-0.8,0.8v2.9h1.1v-2.9C202,348.3,202.4,347.9,202.8,347.9z"/>
		<path class="st7" d="M254.7,347.9h-51.9c-0.5,0-0.8,0.4-0.8,0.8v2.9h53.5v-2.9C255.5,348.3,255.2,347.9,254.7,347.9z"/>
		<path class="st7" d="M273.4,347.9h-1.1c-0.5,0-0.8,0.4-0.8,0.8v2.9h1.1v-2.9C272.6,348.3,273,347.9,273.4,347.9z"/>
		<path class="st7" d="M326.1,347.9h-0.7c0.5,0,0.8,0.4,0.8,0.8v2.9h0.7v-2.9C326.9,348.3,326.5,347.9,326.1,347.9z"/>
		<path class="st7" d="M325.3,347.9h-51.9c-0.5,0-0.8,0.4-0.8,0.8v2.9h53.5v-2.9C326.2,348.3,325.8,347.9,325.3,347.9z"/>
		<path class="st7" d="M150.8,347.9h-1.1c-0.5,0-0.8,0.4-0.8,0.8v2.9h1.1v-2.9C150,348.3,150.4,347.9,150.8,347.9z"/>
		<path class="st7" d="M175.9,347.9h-0.7c0.5,0,0.8,0.4,0.8,0.8v2.9h0.7v-2.9C176.7,348.3,176.4,347.9,175.9,347.9z"/>
		<path class="st7" d="M175.2,347.9h-24.3c-0.5,0-0.8,0.4-0.8,0.8v2.9h26v-2.9C176,348.3,175.6,347.9,175.2,347.9z"/>
		<rect x="5" y="73.4" class="st7" width="3.7" height="7.1"/>
		<rect x="647.6" y="6.5" class="st7" width="7.1" height="5.5"/>
		<rect x="75.6" y="346.2" class="st7" width="7.1" height="5.5"/>
		<rect x="647.6" y="346.2" class="st7" width="7.1" height="5.5"/>
		<rect x="75.6" y="6.5" class="st7" width="7.1" height="5.5"/>
		<rect x="721.6" y="277.7" class="st7" width="3.7" height="7.1"/>
		<rect x="82.7" y="12" width="564.9" height="6.1"/>
		<path d="M667.8,18.1c25.4,0,46,20.6,46,46v213.6h7.8v-213c0-29.1-23.6-52.7-52.7-52.7h-14.2v6.1H667.8z"/>
		<path d="M713.8,294.1c0,25.4-20.6,46-46,46h-13.1v6.1H669c29.1,0,52.7-23.6,52.7-52.7v-8.7h-7.8V294.1z"/>
		<path d="M62.5,340c-25.4,0-46-20.6-46-46V80.5H8.7v213c0,29.1,23.6,52.7,52.7,52.7h14.2V340H62.5z"/>
		<path d="M16.6,64.1c0-25.4,20.6-46,46-46h13.1V12H61.4C32.3,12,8.7,35.6,8.7,64.7v8.7h7.9V64.1z"/>
		<rect x="82.7" y="340" width="564.9" height="6.1"/>
		<rect x="75.6" y="12" width="7.1" height="6.1"/>
		<rect x="647.6" y="12" width="7.1" height="6.1"/>
		<rect x="8.7" y="73.4" width="7.9" height="7.1"/>
		<rect x="75.6" y="340" width="7.1" height="6.1"/>
		<rect x="647.6" y="340" width="7.1" height="6.1"/>
		<rect x="713.8" y="277.7" width="7.8" height="7.1"/>
	</g>
	
		<linearGradient id="path14224_2_" gradientUnits="userSpaceOnUse" x1="-198.3666" y1="425.291" x2="-198.3666" y2="424.5928" gradientTransform="matrix(2.082297e-16 -3.4006 -3.4006 -2.082297e-16 1451.2506 -495.4949)">
		<stop  offset="0" style="stop-color:#000000"/>
		<stop  offset="1" style="stop-color:#212121"/>
	</linearGradient>
	<path id="path14224_1_" class="st8" d="M5,214c0-3.6,0.7-3.5,1.6-4.2c0.6-0.5,0.8-1.2,0.8-2.6V151c0-1.4-0.2-2.1-0.8-2.6
		c-0.8-0.7-1.6-0.6-1.6-4.2V214z"/>
	<g id="g2_1_" transform="matrix(0.95270798,0,0,0.95270798,-94.556188,0.50887389)">
		<path id="rect16441_1_" d="M126.8,223.5v-72.2c0-8.5,6.9-15.3,15.3-15.3l0,0c8.5,0,15.3,6.9,15.3,15.3v72.2
			c0,8.5-6.9,15.3-15.3,15.3l0,0C133.7,238.8,126.8,232,126.8,223.5z"/>
		<g id="g1832_1_" transform="matrix(1.7871898,0,0,1.7871898,56.515339,-13.865451)">
			<circle id="path5263-6_1_" class="st9" cx="47.9" cy="92.5" r="5"/>
			<circle id="path5265-7_1_" class="st10" cx="47.9" cy="92.5" r="3.1"/>
			<circle id="path5267-4_1_" class="st11" cx="47.9" cy="92.5" r="2.3"/>
			<g id="path5271-1_1_" class="st12">
				<path class="st13" d="M46.3,94.1c0,0.3,0.5,0.7,1.3,0.7c0.8,0,1.3-0.3,1.3-0.5C48.9,94,47.7,93.2,46.3,94.1L46.3,94.1z"/>
			</g>
			<g id="path5273-3_1_" class="st14">
				<path class="st13" d="M46,92.1c0.1,0.4,0.8,0.5,1.2,0.5c0.4,0,1.5-0.6,1.2-1.3s-1.1-0.8-1.7-0.5C46.2,91.1,45.8,91.6,46,92.1z"
					/>
			</g>
		</g>
	</g>
</g>
</svg>
