<?xml version="1.0" encoding="utf-8"?>
<!-- Generator: Adobe Illustrator 24.2.3, SVG Export Plug-In . SVG Version: 6.00 Build 0)  -->
<svg version="1.1"
	 id="svg8" xmlns:cc="http://creativecommons.org/ns#" xmlns:dc="http://purl.org/dc/elements/1.1/" xmlns:rdf="http://www.w3.org/1999/02/22-rdf-syntax-ns#" xmlns:svg="http://www.w3.org/2000/svg"
	 xmlns="http://www.w3.org/2000/svg" xmlns:xlink="http://www.w3.org/1999/xlink" x="0px" y="0px" viewBox="0 0 361.3 736.2"
	 style="enable-background:new 0 0 361.3 736.2;" xml:space="preserve">
<style type="text/css">
	.st0{fill:#363C71;}
	.st1{fill:url(#SVGID_1_);}
	.st2{fill:url(#SVGID_2_);}
	.st3{fill:url(#SVGID_3_);}
	.st4{fill:url(#SVGID_4_);}
	.st5{fill:#525CA8;stroke:#414888;stroke-miterlimit:15.1181;}
	.st6{fill:#B7BBDA;fill-opacity:0.4082;stroke:#414888;stroke-miterlimit:15.1181;}
	.st7{fill:#0D0D0D;}
	.st8{fill:url(#path14224_2_);}
	.st9{fill:#0A0A0A;}
	.st10{fill:#0A0D13;}
	.st11{fill:#091427;}
	.st12{opacity:0.5561;fill-rule:evenodd;clip-rule:evenodd;fill:#235A91;enable-background:new    ;}
</style>
<g>
	<g>
		<path class="st0" d="M358.9,224.1c0.5,0,0.8,0.4,0.8,0.8v-1.1c0-0.5-0.4-0.8-0.8-0.8h-1.5v1.1H358.9z"/>
		<path class="st0" d="M358.9,309.5h-1.5v0.7h1.5c0.5,0,0.8-0.4,0.8-0.8v-0.7C359.7,309.2,359.3,309.5,358.9,309.5z"/>
		<path class="st0" d="M358.9,224.1h-1.5v85.4h1.5c0.5,0,0.8-0.4,0.8-0.8v-83.8C359.7,224.5,359.3,224.1,358.9,224.1z"/>
		
			<linearGradient id="SVGID_1_" gradientUnits="userSpaceOnUse" x1="-689.1432" y1="317.1931" x2="-689.1432" y2="339.7344" gradientTransform="matrix(3.7795 0 0 3.7795 2963.1831 -974.5133)">
			<stop  offset="0" style="stop-color:#D3D3E8"/>
			<stop  offset="0.2673" style="stop-color:#707498"/>
			<stop  offset="0.9112" style="stop-color:#5B5D84"/>
			<stop  offset="1" style="stop-color:#4A5088"/>
		</linearGradient>
		<path class="st1" d="M358.9,224.1h-1.5v85.4h1.5c0.5,0,0.8-0.4,0.8-0.8v-83.8C359.7,224.5,359.3,224.1,358.9,224.1z"/>
		<path class="st0" d="M2.4,257.8c-0.5,0-0.8-0.4-0.8-0.8v0.7c0,0.5,0.4,0.8,0.8,0.8h1.5v-0.7H2.4L2.4,257.8z"/>
		<path class="st0" d="M2.4,204.3h1.5v-1.1H2.4c-0.5,0-0.8,0.4-0.8,0.8v1.1C1.5,204.7,1.9,204.3,2.4,204.3z"/>
		<path class="st0" d="M2.4,257.8h1.5v-53.5H2.4c-0.5,0-0.8,0.4-0.8,0.8V257C1.5,257.5,1.9,257.8,2.4,257.8z"/>
		
			<linearGradient id="SVGID_2_" gradientUnits="userSpaceOnUse" x1="-691.2326" y1="317.1931" x2="-691.2326" y2="331.3856" gradientTransform="matrix(3.7795 0 0 3.7795 2615.2722 -994.3347)">
			<stop  offset="0" style="stop-color:#D3D3E8"/>
			<stop  offset="0.2673" style="stop-color:#707498"/>
			<stop  offset="0.9112" style="stop-color:#5B5D84"/>
			<stop  offset="1" style="stop-color:#4A5088"/>
		</linearGradient>
		<path class="st2" d="M2.4,257.8h1.5v-53.5H2.4c-0.5,0-0.8,0.4-0.8,0.8V257C1.5,257.5,1.9,257.8,2.4,257.8z"/>
		<path class="st0" d="M2.4,274.9h1.5v-1.1H2.4c-0.5,0-0.8,0.4-0.8,0.8v1.1C1.5,275.3,1.9,274.9,2.4,274.9z"/>
		<path class="st0" d="M2.4,328.5c-0.5,0-0.8-0.4-0.8-0.8v0.7c0,0.5,0.4,0.8,0.8,0.8h1.5v-0.7H2.4z"/>
		<path class="st0" d="M2.4,328.5h1.5V275H2.4c-0.5,0-0.8,0.4-0.8,0.8v51.9C1.5,328.1,1.9,328.5,2.4,328.5z"/>
		
			<linearGradient id="SVGID_3_" gradientUnits="userSpaceOnUse" x1="-691.2326" y1="317.1931" x2="-691.2326" y2="331.3856" gradientTransform="matrix(3.7795 0 0 3.7795 2615.2722 -923.7097)">
			<stop  offset="0" style="stop-color:#D3D3E8"/>
			<stop  offset="0.2673" style="stop-color:#707498"/>
			<stop  offset="0.9112" style="stop-color:#5B5D84"/>
			<stop  offset="1" style="stop-color:#4A5088"/>
		</linearGradient>
		<path class="st3" d="M2.4,328.5h1.5V275H2.4c-0.5,0-0.8,0.4-0.8,0.8v51.9C1.5,328.1,1.9,328.5,2.4,328.5z"/>
		<path class="st0" d="M2.4,152.3h1.5v-1.1H2.4c-0.5,0-0.8,0.4-0.8,0.8v1.1C1.5,152.7,1.9,152.3,2.4,152.3z"/>
		<path class="st0" d="M2.4,178.3c-0.5,0-0.8-0.4-0.8-0.8v0.7c0,0.5,0.4,0.8,0.8,0.8h1.5v-0.7H2.4z"/>
		<path class="st0" d="M2.4,178.3h1.5v-26H2.4c-0.5,0-0.8,0.4-0.8,0.8v24.3C1.5,177.9,1.9,178.3,2.4,178.3z"/>
		
			<linearGradient id="SVGID_4_" gradientUnits="userSpaceOnUse" x1="-691.2326" y1="317.1931" x2="-691.2326" y2="324.0413" gradientTransform="matrix(3.7795 0 0 3.7795 2615.2722 -1046.3245)">
			<stop  offset="0" style="stop-color:#D3D3E8"/>
			<stop  offset="0.2673" style="stop-color:#707498"/>
			<stop  offset="0.9112" style="stop-color:#5B5D84"/>
			<stop  offset="1" style="stop-color:#4A5088"/>
		</linearGradient>
		<path class="st4" d="M2.4,178.3h1.5v-26H2.4c-0.5,0-0.8,0.4-0.8,0.8v24.3C1.5,177.9,1.9,178.3,2.4,178.3z"/>
		<rect x="3.9" y="85" class="st5" width="4.1" height="66.2"/>
		<path class="st5" d="M66.1,727.7C34,727.7,8,701.7,8,669.6V657H3.9v14.3c0,33.2,26.9,60.1,60.1,60.1h10.9v-3.8h-8.8V727.7z"/>
		<rect x="3.9" y="179" class="st5" width="4.1" height="24.2"/>
		<path class="st5" d="M353.2,649.9h4.1v7.1h-4.1v12.6c0,32.1-26,58.1-58.1,58.1H82v3.8h215.2c33.2,0,60.1-26.9,60.1-60.1V310.3
			h-4.1C353.2,310.3,353.2,649.9,353.2,649.9z"/>
		<rect x="3.9" y="258.6" class="st5" width="4.1" height="15.3"/>
		<rect x="353.2" y="85" class="st5" width="4.1" height="138"/>
		<path class="st5" d="M295.2,7.3c32,0,58,26,58,58v12.6h4.1V63.6c0-33.2-26.9-60.1-60.1-60.1h-10.9v3.8H295.2z"/>
		<path class="st5" d="M8,65.3c0-32,26-58,58.1-58h213.1V3.5H64C30.8,3.5,3.9,30.4,3.9,63.6v14.3H8V65.3z"/>
		<rect x="3.9" y="329.2" class="st5" width="4.1" height="320.7"/>
		<rect x="353.2" y="309.5" class="st5" width="4.1" height="0.7"/>
		<rect x="353.2" y="223" class="st5" width="4.1" height="1.1"/>
		<rect x="353.2" y="224.1" class="st5" width="4.1" height="85.4"/>
		<rect x="3.9" y="203.2" class="st5" width="4.1" height="1.1"/>
		<rect x="3.9" y="257.8" class="st5" width="4.1" height="0.7"/>
		<rect x="3.9" y="204.3" class="st5" width="4.1" height="53.5"/>
		<rect x="3.9" y="273.8" class="st5" width="4.1" height="1.1"/>
		<rect x="3.9" y="328.5" class="st5" width="4.1" height="0.7"/>
		<rect x="3.9" y="274.9" class="st5" width="4.1" height="53.5"/>
		<rect x="3.9" y="178.3" class="st5" width="4.1" height="0.7"/>
		<rect x="3.9" y="151.2" class="st5" width="4.1" height="1.1"/>
		<rect x="3.9" y="152.3" class="st5" width="4.1" height="26"/>
		<rect x="3.4" y="77.9" class="st6" width="0.5" height="7.1"/>
		<rect x="74.9" y="731.5" class="st6" width="7.1" height="0.5"/>
		<rect x="357.3" y="77.9" class="st6" width="0.5" height="7.1"/>
		<rect x="279.2" y="3" class="st6" width="7.1" height="0.5"/>
		<polygon class="st6" points="3.9,649.9 3.9,657 3.9,657 		"/>
		<rect x="3.9" y="649.9" class="st6" width="4.1" height="7.1"/>
		<rect x="74.9" y="727.7" class="st6" width="7.1" height="3.8"/>
		<rect x="3.9" y="77.9" class="st6" width="4.1" height="7.1"/>
		<rect x="353.2" y="77.9" class="st6" width="4.1" height="7.1"/>
		<rect x="353.2" y="649.9" class="st6" width="4.1" height="7.1"/>
		<rect x="279.2" y="3.5" class="st6" width="7.1" height="3.8"/>
		<path class="st7" d="M347.7,649.9h5.5V310.3h-2.9c-0.5,0-0.8-0.4-0.8-0.8v-0.7V225v-1.1c0-0.5,0.4-0.8,0.8-0.8h2.9v-138h-5.5
			V649.9z"/>
		<path class="st7" d="M13.5,63.7C13.5,34.6,37.1,11,66.2,11h213V7.3H66.1C34,7.3,8,33.3,8,65.4V78h5.5V63.7z"/>
		<path class="st7" d="M13.5,85H8v66.2h2.9c0.5,0,0.8,0.4,0.8,0.8v1.1v24.3v0.7c0,0.5-0.4,0.8-0.8,0.8H8v24.2h2.9
			c0.5,0,0.8,0.4,0.8,0.8v1.1v51.9v0.7c0,0.5-0.4,0.8-0.8,0.8H8v15.3h2.9c0.5,0,0.8,0.4,0.8,0.8v1.1v51.9v0.7c0,0.5-0.4,0.8-0.8,0.8
			H8v320.7h5.5V85z"/>
		<path class="st7" d="M353.2,669.6V657h-5.5v14.3c0,29.1-23.6,52.7-52.7,52.7H82v3.7h213.2C327.2,727.7,353.2,701.7,353.2,669.6z"
			/>
		<path class="st7" d="M66.2,723.9c-29.1,0-52.7-23.6-52.7-52.7V657H8v12.6c0,32.1,26,58.1,58.1,58.1h8.8V724L66.2,723.9L66.2,723.9
			z"/>
		<path class="st7" d="M295,11c29.1,0,52.7,23.6,52.7,52.7v14.2h5.5V65.3c0-32-26-58-58-58h-8.8V11H295z"/>
		<path class="st7" d="M349.4,308.7v0.7c0,0.5,0.4,0.8,0.8,0.8h3v-0.7h-2.9C349.8,309.5,349.4,309.2,349.4,308.7z"/>
		<path class="st7" d="M349.4,223.9v1.1c0-0.5,0.4-0.8,0.8-0.8h3v-1.1h-2.9C349.8,223,349.4,223.4,349.4,223.9z"/>
		<path class="st7" d="M349.4,224.9v83.8c0,0.5,0.4,0.8,0.8,0.8h3v-85.4h-2.9C349.8,224.1,349.4,224.5,349.4,224.9z"/>
		<path class="st7" d="M11.8,257.8v-0.7c0,0.5-0.4,0.8-0.8,0.8H8.1v0.7H11C11.4,258.6,11.8,258.2,11.8,257.8z"/>
		<path class="st7" d="M11.8,205.1V204c0-0.5-0.4-0.8-0.8-0.8H8.1v1.1H11C11.4,204.3,11.8,204.7,11.8,205.1z"/>
		<path class="st7" d="M11.8,257v-51.9c0-0.5-0.4-0.8-0.8-0.8H8.1v53.5H11C11.4,257.8,11.8,257.5,11.8,257z"/>
		<path class="st7" d="M11.8,275.7v-1.1c0-0.5-0.4-0.8-0.8-0.8H8.1v1.1H11C11.4,274.9,11.8,275.3,11.8,275.7z"/>
		<path class="st7" d="M11.8,328.4v-0.7c0,0.5-0.4,0.8-0.8,0.8H8.1v0.7H11C11.4,329.2,11.8,328.8,11.8,328.4z"/>
		<path class="st7" d="M11.8,327.6v-51.9c0-0.5-0.4-0.8-0.8-0.8H8.1v53.5H11C11.4,328.5,11.8,328.1,11.8,327.6z"/>
		<path class="st7" d="M11.8,153.1V152c0-0.5-0.4-0.8-0.8-0.8H8.1v1.1H11C11.4,152.3,11.8,152.7,11.8,153.1z"/>
		<path class="st7" d="M11.8,178.2v-0.7c0,0.5-0.4,0.8-0.8,0.8H8.1v0.7H11C11.4,179,11.8,178.7,11.8,178.2z"/>
		<path class="st7" d="M11.8,177.5v-24.3c0-0.5-0.4-0.8-0.8-0.8H8.1v26H11C11.4,178.3,11.8,177.9,11.8,177.5z"/>
		<rect x="279.2" y="7.3" class="st7" width="7.1" height="3.7"/>
		<rect x="347.7" y="649.9" class="st7" width="5.5" height="7.1"/>
		<rect x="8" y="77.9" class="st7" width="5.5" height="7.1"/>
		<rect x="8" y="649.9" class="st7" width="5.5" height="7.1"/>
		<rect x="347.7" y="77.9" class="st7" width="5.5" height="7.1"/>
		<rect x="74.9" y="723.9" class="st7" width="7.1" height="3.7"/>
		<rect x="341.6" y="85" width="6.1" height="564.9"/>
		<path d="M341.6,670.1c0,25.4-20.6,46-46,46H82v7.8h213c29.1,0,52.7-23.6,52.7-52.7V657h-6.1V670.1L341.6,670.1z"/>
		<path d="M65.6,716.1c-25.4,0-46-20.6-46-46V657h-6.1v14.3c0,29.1,23.6,52.7,52.7,52.7h8.7v-7.8h-9.3V716.1z"/>
		<path d="M19.7,64.8c0-25.4,20.6-46,46-46h213.5V11h-213c-29.1,0-52.7,23.6-52.7,52.7v14.2h6.2V64.8z"/>
		<path d="M295.6,18.9c25.4,0,46,20.6,46,46V78h6.1V63.7c0-29.1-23.6-52.7-52.7-52.7h-8.7v7.9H295.6z"/>
		<rect x="13.6" y="85" width="6.1" height="564.9"/>
		<rect x="341.6" y="77.9" width="6.1" height="7.1"/>
		<rect x="341.6" y="649.9" width="6.1" height="7.1"/>
		<rect x="279.2" y="11" width="7.1" height="7.9"/>
		<rect x="13.6" y="77.9" width="6.1" height="7.1"/>
		<rect x="13.6" y="649.9" width="6.1" height="7.1"/>
		<rect x="74.9" y="716.1" width="7.1" height="7.8"/>
	</g>
	
		<linearGradient id="path14224_2_" gradientUnits="userSpaceOnUse" x1="-813.9159" y1="267.4576" x2="-813.9159" y2="268.1558" gradientTransform="matrix(3.4006 0 0 3.4006 2948.4187 -902.1758)">
		<stop  offset="0" style="stop-color:#000000"/>
		<stop  offset="1" style="stop-color:#212121"/>
	</linearGradient>
	<path id="path14224_1_" class="st8" d="M145.7,7.3c3.6,0,3.5,0.7,4.2,1.6c0.5,0.6,1.2,0.8,2.6,0.8h56.2c1.4,0,2.1-0.2,2.6-0.8
		c0.7-0.8,0.6-1.6,4.2-1.6H145.7z"/>
	<g id="g2_1_" transform="matrix(0.95270798,0,0,0.95270798,-94.556188,0.50887389)">
		<path id="rect16441_1_" d="M252.8,29.5H325c8.5,0,15.3,6.9,15.3,15.3l0,0c0,8.5-6.9,15.3-15.3,15.3h-72.2
			c-8.5,0-15.3-6.9-15.3-15.3l0,0C237.5,36.4,244.3,29.5,252.8,29.5z"/>
		<g id="g1832_1_" transform="matrix(1.7871898,0,0,1.7871898,56.515339,-13.865451)">
			<circle id="path5263-6_1_" class="st9" cx="150.1" cy="32.8" r="5"/>
			<circle id="path5265-7_1_" class="st10" cx="150.1" cy="32.8" r="3.1"/>
			<circle id="path5267-4_1_" class="st11" cx="150.1" cy="32.8" r="2.3"/>
			<g id="path5271-1_1_">
				<path class="st12" d="M148.5,31.2c-0.3,0-0.7,0.5-0.7,1.3c0,0.8,0.3,1.3,0.5,1.3C148.6,33.8,149.4,32.6,148.5,31.2L148.5,31.2z"
					/>
			</g>
			<g id="path5273-3_1_">
				<path class="st12" d="M150.5,30.9c-0.4,0.1-0.5,0.8-0.5,1.2c0,0.4,0.6,1.5,1.3,1.2c0.7-0.3,0.8-1.1,0.5-1.7
					C151.5,31.1,151,30.7,150.5,30.9z"/>
			</g>
		</g>
	</g>
</g>
</svg>
