<svg width="44" height="44" viewBox="0 0 44 44" fill="none" xmlns="http://www.w3.org/2000/svg">
<rect x="0.5" y="0.5" width="43" height="43" rx="4.5" fill="white" fill-opacity="0.1"/>
<rect x="0.5" y="0.5" width="43" height="43" rx="4.5" stroke="white"/>
<path d="M24.5156 25.6664C25.8399 25.0884 26.9247 24.0721 27.5878 22.7884C28.2508 21.5047 28.4516 20.0318 28.1564 18.6174C27.8612 17.2031 27.088 15.9335 25.9668 15.0221C24.8456 14.1108 23.4449 13.6133 22 13.6133C20.5552 13.6133 19.1544 14.1108 18.0332 15.0221C16.912 15.9335 16.1388 17.2031 15.8436 18.6174C15.5484 20.0318 15.7492 21.5047 16.4123 22.7884C17.0753 24.0721 18.1602 25.0884 19.4844 25.6664V27.0315H24.5156V25.6664ZM21.3468 17.042C20.753 17.1774 20.2161 17.4941 19.8105 17.9483C19.4048 18.4025 19.1505 18.9717 19.0827 19.5769C19.06 19.7818 18.9627 19.9711 18.8092 20.1088C18.6558 20.2465 18.457 20.3228 18.2509 20.3232C18.2195 20.3232 18.1882 20.3215 18.157 20.3181C17.9366 20.2937 17.7348 20.1829 17.5959 20.01C17.457 19.8371 17.3922 19.6163 17.4157 19.3958C17.5217 18.4438 17.9215 17.5485 18.5596 16.8342C19.1976 16.1198 20.0422 15.6218 20.9761 15.4093C21.1931 15.3602 21.4207 15.3992 21.6088 15.5179C21.797 15.6365 21.9303 15.8251 21.9795 16.042C22.0286 16.2589 21.9896 16.4865 21.8709 16.6747C21.7523 16.8629 21.5637 16.9962 21.3468 17.0453V17.042ZM19.4844 28.7086H24.5156V29.5471C24.5156 29.7695 24.4273 29.9828 24.27 30.1401C24.1128 30.2973 23.8995 30.3857 23.6771 30.3857H20.3229C20.1005 30.3857 19.8872 30.2973 19.73 30.1401C19.5727 29.9828 19.4844 29.7695 19.4844 29.5471V28.7086Z" fill="white"/>
</svg>
