<svg width="26" height="26" viewBox="0 0 26 26" fill="none" xmlns="http://www.w3.org/2000/svg">
<path d="M18.9675 17.1492L18.4162 16.9917C18.1485 16.9242 17.8855 16.8395 17.6287 16.738C17.367 16.6442 17.1416 16.4702 16.9845 16.2408C16.8274 16.0115 16.7467 15.7384 16.7537 15.4605C19.2388 12.8355 19.2037 10.4992 19.1512 8.04922C19.1512 7.71672 19.1512 7.38422 19.1512 7.04297C19.1286 5.42556 18.4761 3.88075 17.3323 2.73696C16.1885 1.59317 14.6437 0.940593 13.0263 0.917969C11.4043 0.933801 9.85281 1.58338 8.70339 2.72789C7.55397 3.8724 6.89777 5.42107 6.875 7.04297C6.875 7.38422 6.875 7.71672 6.875 8.04922C6.8225 10.4992 6.7875 12.818 9.2725 15.4605C9.27698 15.7472 9.18928 16.0278 9.0223 16.2609C8.85533 16.4941 8.61791 16.6674 8.345 16.7555C8.1 16.8517 7.8375 16.9217 7.5925 16.9917L7.04125 17.1492C3.90875 18.1905 0.75 21.043 0.75 24.543C0.75 24.775 0.842187 24.9976 1.00628 25.1617C1.17038 25.3258 1.39294 25.418 1.625 25.418C1.85706 25.418 2.07962 25.3258 2.24372 25.1617C2.40781 24.9976 2.5 24.775 2.5 24.543C2.5 21.918 5.125 19.6342 7.5925 18.8117C7.7325 18.7592 7.88125 18.7242 8.0475 18.6805C8.36734 18.6114 8.68288 18.5238 8.9925 18.418C9.39271 18.269 9.75614 18.0355 10.0581 17.7336C10.3601 17.4316 10.5935 17.0682 10.7425 16.668C10.9768 16.7851 11.2196 16.8846 11.4688 16.9655L10.5938 17.8405C10.4639 17.9715 10.3787 18.1401 10.3504 18.3224C10.3221 18.5047 10.3522 18.6913 10.4362 18.8555L11.25 20.2905L10.375 24.368C10.3286 24.6 10.3763 24.841 10.5075 25.0379C10.6388 25.2349 10.8429 25.3716 11.075 25.418C11.3071 25.4644 11.5481 25.4167 11.745 25.2854C11.9419 25.1542 12.0786 24.95 12.125 24.718L13 20.343C13.0043 20.2847 13.0043 20.2262 13 20.168C12.9957 20.2262 12.9957 20.2847 13 20.343L13.875 24.718C13.9159 24.9186 14.0259 25.0985 14.1857 25.2264C14.3456 25.3543 14.5453 25.4221 14.75 25.418H14.925C15.041 25.3972 15.1516 25.3532 15.2502 25.2886C15.3488 25.224 15.4333 25.1401 15.4986 25.0421C15.564 24.944 15.6089 24.8337 15.6306 24.7179C15.6523 24.6021 15.6504 24.483 15.625 24.368L14.8112 20.2905L15.5462 18.8117C15.6303 18.6475 15.6604 18.461 15.6321 18.2787C15.6038 18.0964 15.5186 17.9277 15.3887 17.7967L14.5137 16.9217C14.7673 16.8416 15.0133 16.7391 15.2487 16.6155C15.3988 17.0151 15.6325 17.378 15.9344 17.6799C16.2362 17.9817 16.5991 18.2155 16.9987 18.3655C17.3268 18.4973 17.6629 18.6084 18.005 18.698C18.1625 18.7417 18.32 18.7767 18.46 18.8292C20.875 19.6342 23.5 21.918 23.5 24.543C23.5 24.775 23.5922 24.9976 23.7563 25.1617C23.9204 25.3258 24.1429 25.418 24.375 25.418C24.6071 25.418 24.8296 25.3258 24.9937 25.1617C25.1578 24.9976 25.25 24.775 25.25 24.543C25.25 21.043 22.0912 18.1905 18.9675 17.1492ZM8.625 8.07547C8.625 7.74297 8.625 7.39297 8.625 7.04297C8.625 5.88265 9.08594 4.76985 9.90641 3.94938C10.7269 3.1289 11.8397 2.66797 13 2.66797C14.1603 2.66797 15.2731 3.1289 16.0936 3.94938C16.9141 4.76985 17.375 5.88265 17.375 7.04297C17.375 7.39297 17.375 7.74297 17.375 8.07547C17.375 10.4205 17.4537 12.2755 15.2137 14.5155C14.9226 14.8086 14.5763 15.0412 14.1949 15.2C13.8135 15.3587 13.4044 15.4405 12.9912 15.4405C12.5781 15.4405 12.169 15.3587 11.7876 15.2C11.4062 15.0412 11.0599 14.8086 10.7687 14.5155C8.5375 12.293 8.5725 10.4205 8.625 8.07547ZM13.105 19.7742C13.0395 19.8954 13.0035 20.0303 13 20.168C12.9992 20.031 12.9662 19.8961 12.9037 19.7742L12.3175 18.593L13 17.9017L13.6825 18.593L13.105 19.7742Z" fill="white"/>
</svg>
