<?xml version="1.0" encoding="utf-8"?>
<!-- Generator: Adobe Illustrator 24.2.3, SVG Export Plug-In . SVG Version: 6.00 Build 0)  -->
<svg version="1.1" id="Layer_1" xmlns="http://www.w3.org/2000/svg" xmlns:xlink="http://www.w3.org/1999/xlink" x="0px" y="0px"
	 viewBox="0 0 1141.1 725.2" style="enable-background:new 0 0 1141.1 725.2;" xml:space="preserve">
<style type="text/css">
	.st0{fill:#7001DA;}
	.st1{fill:#883EDC;}
	.st2{fill:#A057E6;}
	.st3{fill:#5400B4;}
	.st4{fill:#6D26BF;}
	.st5{fill:#33E081;}
</style>
<g>
	<path class="st0" d="M948.9,133.3c0.6,0.5,1.2,0.9,1.7,1.4c1.5,1.2,2.9,2.3,4.4,3.5c0.6,0.5,1.1,0.9,1.7,1.4
		c1.1,0.9,2.2,1.7,3.3,2.6c0.9,0.8,1.8,1.6,2.7,2.3c1.4,1.2,2.8,2.5,4.3,3.7c0.9,0.8,1.8,1.6,2.7,2.4c1.8,1.5,3.6,3,5.4,4.5
		c0.9,0.8,1.7,1.7,2.6,2.5c1.2,1.5,2.3,3.2,3.7,4.5c8.1,7.9,16.4,15.8,24.6,23.6c1.6,1.5,3.3,2.9,5,4.4c0,0,0,0,0,0
		c0.7,0.7,1.3,1.3,2,2c0,0,0,0,0,0c2.9,3.1,5.7,6.2,8.6,9.2c0.8,0.9,1.6,1.8,2.5,2.7c1.5,1.8,3.1,3.5,4.6,5.3
		c0.8,0.9,1.6,1.8,2.4,2.7c0.6,0.7,1.3,1.4,1.9,2.1c0,0,0,0,0,0c2.5,3.1,5.1,6.1,7.6,9.2c0.5,0.6,1,1.1,1.5,1.7
		c2.2,2.7,4.4,5.5,6.6,8.2c0.2,0.2,0.4,0.4,0.5,0.7c1.1,1.5,2.3,2.9,3.4,4.4c0.3,0.2,0.4,0.4,0.6,0.7c1.9,2.4,3.7,4.9,5.6,7.3
		c0.2,0.2,0.4,0.4,0.5,0.7c1.5,2.1,3.1,4.2,4.6,6.3c0.2,0.2,0.3,0.4,0.4,0.7c0.6,0.8,1.1,1.5,1.7,2.3c0.4,0.6,0.9,1.2,1.3,1.8
		c1.2,1.7,2.4,3.5,3.6,5.2c0.2,0.2,0.3,0.4,0.4,0.7c4.5,6.8,9,13.5,13.5,20.3c0.2,0.2,0.4,0.4,0.4,0.7c0.9,1.4,1.8,2.8,2.6,4.3
		c0.2,0.2,0.4,0.4,0.4,0.6c0.6,1.7,1,3.5,1.9,5c3.8,6.6,7.7,13,11.6,19.5c3.3,5.6,6.6,11.2,9.9,16.9c0.3,0.5,0.6,0.9,0.9,1.4
		c0.4,1.5,0.7,3.1,1.2,4.6c5.3,13.7,10.7,27.4,16,41.2c1.7,4.5,3.2,9.2,4.7,13.8c0.1,0.6,0.2,1.2,0.3,1.8c0.4,3.3,0.6,6.7,1.3,10
		c1,5.1,2.3,10.1,3.5,15.1c0.1,1,0.2,1.9,0.2,2.9c0.5,5,1,10,1.6,15c0,2.2,0.1,4.4,0.1,6.6c0,7.6,0,15.2,0,22.8
		c0,2.2-0.1,4.4-0.1,6.6c-0.5,5-1.1,10-1.6,15c0,0.6-0.1,1.3-0.1,1.9c-0.5,0.8-1.3,1.5-1.5,2.3c-2,9.7-3.8,19.4-6,29.1
		c-4.1,18.3-11,35.7-19.3,52.5c-3,6-5.9,12.2-8.8,18.2c0,0.3-0.2,0.5-0.4,0.7c-2.8,4.4-5.7,8.9-8.5,13.3c-0.1,0.3-0.2,0.5-0.5,0.6
		c-1.2,1.7-2.4,3.5-3.6,5.2c-0.1,0.3-0.2,0.5-0.5,0.7c-1.8,2.5-3.6,4.9-5.5,7.4c-0.1,0.3-0.3,0.5-0.5,0.6c-2.5,3.1-5,6.2-7.6,9.3
		c-0.5,0.6-1,1.1-1.5,1.7c-1.8,2.1-3.7,4.2-5.5,6.3c-5.7,5.6-11.3,11.3-17,16.9c-1.8,1.5-3.5,3-5.3,4.6c-0.1,0.2-0.3,0.4-0.6,0.5
		c-1.8,1.5-3.6,3-5.4,4.6l-0.1,0.1c-1.6,1.3-3.3,2.6-4.9,3.9c-0.2,0.2-0.4,0.4-0.7,0.4c-2.5,1.8-4.9,3.7-7.4,5.5
		c-0.2,0.2-0.4,0.4-0.7,0.5c-4.8,3.2-9.6,6.4-14.3,9.5c-0.2,0.2-0.4,0.4-0.7,0.4c-3.8,2.2-7.5,4.4-11.3,6.6
		c-0.2,0.2-0.4,0.4-0.7,0.5c-1.2,0.3-2.5,0.5-3.7,1c-10.8,4.8-21.4,10.5-32.6,14.2c-14.7,4.8-29.9,8-44.8,12
		c-1.5,0.4-2.9,1.4-4.3,2.1c-0.6,0.1-1.3,0.1-1.9,0.2c-3.6,0.5-7.3,1-10.9,1.5c-0.9,0-1.8,0.1-2.7,0.1c-8.1,0.3-16.2,0.8-24.3,0.8
		c-99.4,0.1-198.9,0-298.3,0c-2.2,0-4.3-0.1-6.5-0.1c0-37.3,0-74.5-0.1-111.8c97.6,0,195.2,0,292.8-0.1c8.6,0,17.3-0.3,25.9-1
		c14.9-1.3,29.2-5.2,43-11c24.7-10.3,45.1-26.4,61.8-47.1c12.4-15.4,21.6-32.6,27.2-51.5c5.7-19.3,8.1-39,6.4-59.3
		c-1.9-22-7.7-42.7-18.5-61.7c-11.1-19.5-23.2-38.5-35.5-57.3c-12.9-19.6-28.1-37.3-44.4-54.1c-8.9-9.2-18.1-18.1-27.7-26.6
		c-11.3-10-22.5-20.2-34.8-28.8c-18.4-13-37.2-25.5-56.6-36.7c-17.5-10-35.6-19.3-54.3-26.4c-23.6-9-47.8-16.7-72.3-22.8
		c-22.2-5.5-45.1-8.7-67.9-11.6c-15.6-2-31.5-1.6-47.2-2.3c-0.3-12.4-0.8-24.9-0.9-37.3c-0.1-24.8,0-49.6,0.1-74.4
		c8.4-0.1,16.8-0.3,25.2-0.4c0.5,0,1.1,0.1,1.6,0.1c8.7,0.5,17.3,1,26,1.6c1.3,0.1,2.6,0.1,3.9,0.2c0.8,0.4,1.6,1.2,2.5,1.3
		c6.7,0.8,13.4,1.5,20.1,2.2c5.2,0.5,10.4,0.9,15.5,1.4c0.6,0.1,1.3,0.1,1.9,0.2c8.9,1.6,17.7,3.3,26.6,4.9c0.5,0.1,1.1,0.1,1.6,0.2
		c1.1,0.7,2.1,1.7,3.3,1.9c7.4,1.8,14.8,3.4,22.2,5.1c23.9,5.5,47.4,12.8,70,22.2c21.3,8.9,42,18.9,63,28.4
		c5.7,2.6,11.3,5.3,16.9,7.9c0.5,0.3,0.9,0.6,1.4,0.8c3.8,2.2,7.6,4.3,11.3,6.5c0.3,0.1,0.5,0.2,0.7,0.5c0.8,0.5,1.6,1,2.4,1.5
		c0.5,0.3,1,0.6,1.5,0.9c2.8,1.7,5.6,3.5,8.4,5.2c0.3,0.1,0.5,0.2,0.7,0.4c2.4,1.5,4.8,3.1,7.3,4.6c0.3,0.1,0.5,0.2,0.7,0.4
		c0.8,0.5,1.5,1,2.3,1.6c0.3,0.1,0.5,0.2,0.7,0.5c3.1,2.1,6.3,4.3,9.4,6.4c0.3,0.1,0.5,0.2,0.6,0.5c0.8,0.5,1.6,1,2.4,1.5
		c0.3,0.1,0.5,0.2,0.6,0.5c2.1,1.5,4.2,3,6.4,4.5c0.3,0.1,0.5,0.3,0.6,0.5c2.1,1.5,4.2,3.1,6.3,4.6c0.3,0.1,0.5,0.3,0.7,0.5
		c1.1,0.8,2.3,1.6,3.4,2.4c0.3,0.1,0.5,0.2,0.6,0.5c1.1,0.9,2.2,1.7,3.3,2.6c0.6,0.4,1.2,0.9,1.8,1.3c1.1,0.9,2.2,1.7,3.4,2.6
		c0.3,0.1,0.5,0.3,0.6,0.5C946.7,131.6,947.8,132.5,948.9,133.3z"/>
	<path class="st1" d="M567.9,1.7c0,24.8-0.2,49.6-0.1,74.4c0.1,12.4,0.6,24.9,0.9,37.3c-0.3,0-0.6,0.1-0.9,0.1
		c-17.5,1-35.1,1.3-52.6,3.1c-18.4,1.9-36.8,4.6-54.8,8.4c-17.1,3.6-34,8.3-50.5,14.1c-21.3,7.6-42.6,15.6-62.9,25.5
		c-28.1,13.7-54.7,30.2-79.7,49.2c-25.7,19.6-49.3,41.4-71,65.3c-18.3,20.2-34.5,42-49.4,64.8c-16.3,24.9-28.9,51-32.5,81.1
		c-1.9,15.9-1.9,31.5,1,46.9c2.4,13.2,6.7,26.2,11.8,38.7c11.5,28.3,30.4,51.1,54.9,69.3c13.6,10.1,28.5,17.7,44.7,23.1
		c16.5,5.5,33.3,8.7,50.7,8.7c97.8,0.1,195.6,0.1,293.4,0.1l0,0c0,37.3,0,74.5,0.1,111.8c-99.1,0-198.2,0.1-297.4,0
		c-7.8,0-15.5-1.2-23.3-1.8c-4.1-0.3-8.2-0.4-12.2-0.6c-1-0.1-2.1-0.2-3.1-0.3c-7.3-1.5-14.6-3.1-21.9-4.6c-0.7-0.1-1.4-0.2-2.1-0.4
		c-0.9-0.7-1.7-1.6-2.7-1.9c-6.3-1.9-12.9-3-18.9-5.5c-14.6-6-29-12.4-43.2-19.2c-7.7-3.6-14.9-8.3-22.4-12.5
		c-0.3,0-0.6-0.2-0.7-0.5c-0.8-0.5-1.5-1-2.3-1.5c-0.3-0.1-0.6-0.2-0.7-0.5c-2.1-1.5-4.1-3-6.2-4.5c-0.3-0.2-0.5-0.4-0.8-0.6
		c-1.1-0.8-2.1-1.6-3.2-2.4c-0.6-0.5-1.2-0.9-1.8-1.4c-3.1-2.5-6.2-5.1-9.2-7.6c-0.9-0.8-1.8-1.6-2.7-2.4c-1.4-1.2-2.8-2.5-4.1-3.7
		c-4-4-8-7.9-12-11.9c-0.7-0.7-1.3-1.4-2-2.1c-1-1-2-2-3-3c-1.5-1.7-3-3.4-4.6-5.1c-0.8-1-1.6-1.9-2.5-2.9c-0.6-0.7-1.2-1.4-1.7-2.1
		c-0.5-0.6-0.9-1.1-1.4-1.7c-1.2-1.4-2.4-2.9-3.6-4.3c-0.4-0.6-0.9-1.3-1.3-1.9c-0.8-1-1.7-2.1-2.5-3.1c-0.3-0.2-0.5-0.4-0.5-0.8
		c-2.2-3.1-4.4-6.1-6.6-9.2c-0.3-0.2-0.4-0.4-0.5-0.7c-1.2-1.8-2.4-3.5-3.6-5.3c-0.2-0.2-0.4-0.4-0.4-0.7
		c-3.9-6.4-7.7-12.8-11.6-19.3c-0.2-0.2-0.4-0.5-0.3-0.9c-2.7-6-5.4-12-8-18c-8.1-18-14.3-36.5-18.4-55.8c-0.3-1.5-1.3-2.8-2-4.2
		c-0.1-0.7-0.2-1.4-0.3-2c-0.5-2.6-1-5.3-1.4-7.9c0-0.5,0-1,0-1.5c-0.6-9.3-1.2-18.6-1.9-27.8c0-0.6-1-1.1-1.6-1.6
		c0-8.6,0-17.3,0-25.9c0.6-1.3,1.4-2.6,1.7-4c0.5-2.7,0.7-5.5,0.9-8.3c0.3-5.2,0.5-10.3,0.7-15.5c0.1-1,0.2-2.1,0.3-3.1
		c0.5-2.6,1-5.3,1.5-8c0.1-0.7,0.2-1.4,0.2-2c1.1-4.2,2.1-8.4,3.2-12.5c0-0.5,0.1-1,0.1-1.5c0.5-1.6,0.9-3.3,1.4-4.9
		c0.1-0.7,0.3-1.3,0.4-2c0.7-1.2,1.8-2.3,2.2-3.7c5.1-17.8,12.4-34.8,21.2-51.1c2.2-4,3.9-8.2,5.8-12.3c0.2-0.3,0.3-0.6,0.5-0.8
		c3.5-5.7,7-11.4,10.5-17.2c0-0.3,0.2-0.6,0.4-0.8c1.5-2.4,3.1-4.7,4.6-7.1c1.6-2.3,3.1-4.6,4.7-6.9c2.1-3.1,4.2-6.2,6.3-9.2
		c0.1-0.3,0.2-0.6,0.5-0.8c0.8-1.1,1.6-2.2,2.4-3.4c0-0.3,0.2-0.5,0.4-0.7c0.6-0.7,1.1-1.4,1.7-2.2c0.1-0.3,0.2-0.6,0.5-0.8
		c0.8-1.1,1.6-2.2,2.4-3.3c0-0.3,0.2-0.5,0.5-0.7c1.5-2,3.1-4.1,4.6-6.1c0.5-0.6,1-1.2,1.5-1.9c1.8-2.4,3.7-4.7,5.5-7.1
		c0.5-0.6,0.9-1.3,1.4-1.9c1.2-1.4,2.3-2.9,3.5-4.3c0.5-0.6,0.9-1.1,1.4-1.7c2.9-3.4,5.7-6.9,8.6-10.3c0.5-0.6,1-1.1,1.4-1.7
		c1.2-1.4,2.4-2.8,3.6-4.2c0.8-0.9,1.6-1.9,2.5-2.8c1.5-1.7,3-3.4,4.6-5.1c2.5-2.6,4.9-5.2,7.4-7.9c7.5-7.1,15-14.2,22.4-21.4
		c2-1.9,3.5-4.2,5.3-6.3c3-2.8,6-5.5,9-8.3c1.3-1.2,2.7-2.5,4-3.7c0.9-0.8,1.9-1.6,2.8-2.4c1.7-1.5,3.5-3,5.2-4.5
		c0.1-0.3,0.4-0.5,0.7-0.6c1.8-1.5,3.5-2.9,5.3-4.4c0.6-0.5,1.2-1,1.8-1.5c1.4-1.2,2.8-2.3,4.2-3.5c0.6-0.5,1.2-1,1.8-1.5
		c1.1-0.8,2.1-1.7,3.2-2.5c0.2-0.3,0.4-0.5,0.7-0.5c1.1-0.9,2.2-1.7,3.3-2.6c0,0,0.1-0.1,0.1-0.1c1.6-1.3,3.2-2.5,4.8-3.8
		c0.2-0.3,0.4-0.4,0.7-0.5c1.1-0.8,2.2-1.6,3.3-2.5c0.2-0.3,0.4-0.5,0.7-0.5c1.1-0.8,2.2-1.6,3.3-2.5c0.2-0.3,0.4-0.5,0.7-0.5
		c2.1-1.5,4.2-3,6.3-4.5c0.2-0.3,0.4-0.4,0.7-0.5c3.1-2.2,6.2-4.3,9.3-6.5c0.1-0.3,0.4-0.4,0.7-0.5c3.1-2.1,6.2-4.2,9.3-6.3
		c0.5-0.3,0.9-0.6,1.4-0.9c1.2-0.8,2.4-1.6,3.6-2.4c0.2-0.3,0.4-0.4,0.7-0.4c0.8-0.5,1.5-1,2.3-1.5c0.2-0.3,0.4-0.4,0.8-0.5
		c0.8-0.5,1.5-1,2.3-1.4c0.9-0.5,1.8-1.1,2.7-1.6c0.8-0.5,1.5-1,2.3-1.4c0.2-0.3,0.4-0.5,0.8-0.5c1.4-0.9,2.8-1.7,4.2-2.6
		c0.2-0.3,0.4-0.4,0.7-0.4c3.1-1.8,6.2-3.7,9.3-5.5c0.2-0.3,0.5-0.4,0.9-0.4c1.9-0.7,3.8-1.1,5.5-2c8-4.2,16-8.6,24-12.9
		c5.9-3.2,11.7-6.4,17.6-9.5c0.5-0.2,1-0.5,1.5-0.7c0.8-0.1,1.7,0,2.4-0.3c21.4-8.2,42.7-16.4,64-24.6c0.8-0.3,1.4-1.3,2-2
		c0.7-0.1,1.4-0.3,2-0.4c4.5-1.1,9.1-2,13.5-3.2c2.5-0.7,4.9-2.1,7.4-3.1c0.5-0.1,1-0.1,1.6-0.2c3.5-1,7-2.1,10.5-3.1
		c0.7-0.1,1.4-0.2,2-0.3c2.9-0.4,6-0.6,8.8-1.4c6.1-1.5,12.1-3.3,18.1-5c0.5,0,1-0.1,1.6-0.1c5.2-1.1,10.3-2.2,15.5-3.2
		c0.7-0.1,1.4-0.2,2-0.3c3-0.5,6-1,9-1.6c1-0.1,2.1-0.2,3.1-0.3c0.9,0.2,1.9,0.6,2.8,0.5c9-0.9,17.9-1.9,26.8-3
		c2.5-0.3,4.8-1.5,7.2-2.2c1.4-0.1,2.7-0.2,4.1-0.2c8.8-0.3,17.5-0.6,26.2-1c0.2,0,0.4-0.5,0.6-0.7c0.5,0,1,0,1.5,0
		C552.3,1.5,560.1,1.6,567.9,1.7z"/>
	<path class="st2" d="M238,721.2c4.1,0.2,8.2,0.3,12.2,0.6c7.8,0.6,15.5,1.8,23.3,1.8c99.1,0.1,198.2,0.1,297.4,0
		c2.2,0,4.3,0.1,6.5,0.1c99.4,0,198.9,0,298.3,0c8.1,0,16.2-0.5,24.3-0.8c-4.8,0.7-9.7,2-14.5,2c-104.3,0.2-208.5,0.2-312.8,0.2
		c-98.8,0-197.5,0.1-296.3-0.2c-11.9,0-23.8-1.7-35.8-2.7C239.8,722.2,238.9,721.6,238,721.2z"/>
	<path class="st2" d="M868.2,79c-5.6-2.6-11.2-5.3-16.9-7.9c-21-9.6-41.8-19.6-63-28.4c-22.6-9.4-46-16.7-70-22.2
		c-7.4-1.7-14.8-3.3-22.2-5.1c-1.2-0.3-2.2-1.3-3.3-1.9c5.5,1,11,1.7,16.4,3c41.5,9.8,81.6,23.6,120,41.9
		c11.8,5.6,23.4,11.9,35,17.9C865.6,76.9,866.9,78,868.2,79z"/>
	<path class="st2" d="M1103.8,592c2.9-6.1,5.8-12.2,8.8-18.2c8.3-16.8,15.2-34.1,19.3-52.5c2.1-9.7,3.9-19.4,6-29.1
		c0.2-0.8,1-1.6,1.5-2.3c-1.7,9.9-2.8,20-5.1,29.7c-5.9,24.8-15.7,48.2-28.4,70.3C1105.3,590.7,1104.5,591.3,1103.8,592z"/>
	<path class="st2" d="M123.7,676.8c7.4,4.2,14.7,8.8,22.4,12.5c14.2,6.7,28.7,13.1,43.2,19.2c6,2.5,12.6,3.6,18.9,5.5
		c1,0.3,1.8,1.3,2.7,1.9c-8.1-2.2-16.4-3.9-24.3-6.7c-21.6-7.4-41.9-17.7-61-30.2C124.9,678.5,124.3,677.6,123.7,676.8z"/>
	<path class="st2" d="M915.5,721.1c1.4-0.7,2.8-1.7,4.3-2.1c14.9-4,30.1-7.2,44.8-12c11.2-3.7,21.7-9.4,32.6-14.2
		c1.2-0.5,2.5-0.7,3.7-1c-8.2,4.2-16.3,8.8-24.7,12.5c-17.9,7.8-36.6,13-55.7,16.7C918.9,721.3,917.2,721.1,915.5,721.1z"/>
	<path class="st2" d="M5.5,498.9c0.7,1.4,1.7,2.8,2,4.2c4.1,19.3,10.3,37.9,18.4,55.8c2.7,6,5.4,12,8,18c-2.5-4.6-5.2-9.1-7.6-13.8
		c-9.6-19.4-16-39.9-20.9-60.9C5.2,501.2,5.4,500,5.5,498.9z"/>
	<path class="st2" d="M39.9,303.1c-1.9,4.1-3.7,8.3-5.8,12.3c-8.8,16.3-16.1,33.2-21.2,51.1c-0.4,1.3-1.4,2.5-2.2,3.7
		c2.4-7.7,4.1-15.6,7.3-22.9c6-13.9,12.9-27.5,19.5-41.2C37.9,304.9,39,304.1,39.9,303.1z"/>
	<path class="st2" d="M379.9,30.3c-0.7,0.7-1.2,1.7-2,2c-21.3,8.3-42.7,16.5-64,24.6c-0.7,0.3-1.6,0.2-2.4,0.3
		c4.4-2.2,8.6-4.9,13.2-6.7c17.6-6.9,35.3-13.4,52.9-20.1C378.3,30.3,379.1,30.4,379.9,30.3z"/>
	<path class="st2" d="M1134.1,392.3c-1.6-4.6-3-9.3-4.7-13.8c-5.3-13.7-10.7-27.4-16-41.2c-0.6-1.5-0.8-3.1-1.2-4.6
		c3.5,7.4,7.6,14.6,10.5,22.3c4.2,11,7.5,22.2,11.1,33.4C1134.2,389.6,1134,391,1134.1,392.3z"/>
	<path class="st2" d="M309.9,58c-5.9,3.2-11.7,6.4-17.6,9.5c-8,4.3-16,8.7-24,12.9c-1.7,0.9-3.7,1.3-5.5,2c6.5-3.8,12.8-8,19.5-11.4
		C291.4,66.4,300.7,62.3,309.9,58z"/>
	<path class="st2" d="M1010.8,190.2c-1.7-1.5-3.4-2.9-5-4.4c-8.2-7.8-16.4-15.7-24.6-23.6c-1.4-1.3-2.5-3-3.7-4.5
		c4.8,4.1,10,8,14.5,12.4C998.5,176.6,1004.6,183.5,1010.8,190.2z"/>
	<path class="st2" d="M567.9,1.7c-7.8-0.1-15.7-0.2-23.5-0.3c4.2-0.5,8.4-1.3,12.6-1.3c11.2-0.1,22.3,0,33.5,0.1
		c0.9,0,1.8,0.7,2.6,1.1C584.7,1.4,576.3,1.6,567.9,1.7z"/>
	<path class="st2" d="M1111.3,331.3c-3.3-5.6-6.6-11.3-9.9-16.9c-3.9-6.5-7.8-13-11.6-19.5c-0.9-1.5-1.3-3.3-1.9-5
		c6.2,10.2,12.4,20.3,18.4,30.6C1108.3,324,1109.7,327.7,1111.3,331.3z"/>
	<path class="st2" d="M662.7,8c-5.2-0.5-10.4-0.9-15.5-1.4c-6.7-0.7-13.4-1.4-20.1-2.2c-0.9-0.1-1.6-0.8-2.5-1.3
		C637.3,4.8,650,6.4,662.7,8z"/>
	<path class="st2" d="M148.9,166.7c-1.8,2.1-3.3,4.4-5.3,6.3c-7.4,7.2-14.9,14.3-22.4,21.4c0.5-1,0.9-2.1,1.6-2.9
		c7.5-7.6,15.1-15.2,22.8-22.8C146.6,167.8,147.8,167.4,148.9,166.7z"/>
	<path class="st2" d="M511.9,3.3c-2.4,0.8-4.8,1.9-7.2,2.2c-8.9,1.2-17.9,2.1-26.8,3c-0.9,0.1-1.9-0.3-2.8-0.5
		c4.1-0.9,8.2-2.1,12.3-2.6C495.5,4.5,503.7,4,511.9,3.3z"/>
	<path class="st2" d="M0.2,458c0.6,0.5,1.6,1,1.6,1.6c0.7,9.3,1.3,18.6,1.9,27.8c-1.2-7.3-2.5-14.7-3.5-22.1
		C-0.2,462.9,0.1,460.4,0.2,458z"/>
	<path class="st2" d="M3.4,404.3c-0.2,5.2-0.4,10.3-0.7,15.5c-0.2,2.8-0.4,5.5-0.9,8.3c-0.3,1.4-1.1,2.7-1.7,4
		C1.3,422.8,2.3,413.5,3.4,404.3z"/>
	<path class="st2" d="M443.9,13.5c-6,1.7-12,3.5-18.1,5c-2.9,0.7-5.9,0.9-8.8,1.4c5.9-1.7,11.9-3.5,17.9-5
		C437.7,14.1,440.8,13.9,443.9,13.5z"/>
	<path class="st2" d="M620.7,3c-8.7-0.5-17.3-1-26-1.6C603.4,1.9,612.1,2.4,620.7,3z"/>
	<path class="st2" d="M691.2,13.1c-8.9-1.6-17.7-3.3-26.6-4.9C673.5,9.8,682.3,11.5,691.2,13.1z"/>
	<path class="st2" d="M1139.2,419.2c-1.2-5-2.5-10-3.5-15.1c-0.6-3.3-0.9-6.7-1.3-10C1136,402.5,1137.6,410.9,1139.2,419.2z"/>
	<path class="st2" d="M542.9,1.4c-0.2,0.2-0.4,0.7-0.6,0.7c-8.7,0.3-17.5,0.7-26.2,1C524.9,2.5,533.9,1.9,542.9,1.4z"/>
	<path class="st2" d="M213,716.3c7.3,1.5,14.6,3.1,21.9,4.6C227.6,719.4,220.3,717.8,213,716.3z"/>
	<path class="st2" d="M1084.4,284.4c-4.5-6.8-9-13.5-13.5-20.3C1075.4,270.8,1079.9,277.6,1084.4,284.4z"/>
	<path class="st2" d="M402.8,23.5c-2.5,1.1-4.8,2.4-7.4,3.1c-4.4,1.3-9,2.2-13.5,3.2C388.9,27.8,395.9,25.6,402.8,23.5z"/>
	<path class="st2" d="M1141.1,466.4c0-7.6,0-15.2,0-22.8C1141.1,451.2,1141.1,458.8,1141.1,466.4z"/>
	<path class="st2" d="M34.2,577.8c3.9,6.4,7.7,12.8,11.6,19.3C41.9,590.7,38.1,584.2,34.2,577.8z"/>
	<path class="st2" d="M50.8,285.1c-3.5,5.7-7,11.4-10.5,17.2C43.9,296.5,47.4,290.8,50.8,285.1z"/>
	<path class="st2" d="M1141,437.1c-0.5-5-1-10-1.6-15C1140,427.1,1140.5,432.1,1141,437.1z"/>
	<path class="st2" d="M1139.4,487.9c0.5-5,1.1-10,1.6-15C1140.5,477.9,1139.9,482.9,1139.4,487.9z"/>
	<path class="st2" d="M1013.6,684.4c4.8-3.2,9.6-6.4,14.3-9.5C1023.1,678.1,1018.4,681.2,1013.6,684.4z"/>
	<path class="st2" d="M460.9,10.1c-5.2,1.1-10.3,2.2-15.5,3.2C450.6,12.3,455.7,11.2,460.9,10.1z"/>
	<path class="st2" d="M1094.9,606c2.8-4.4,5.7-8.9,8.5-13.3C1100.6,597.1,1097.7,601.6,1094.9,606z"/>
	<path class="st2" d="M101.8,216.1c-2.9,3.4-5.7,6.9-8.6,10.3C96,222.9,98.9,219.5,101.8,216.1z"/>
	<path class="st2" d="M8.7,378.6c-1.1,4.2-2.1,8.4-3.2,12.5C6.5,387,7.6,382.8,8.7,378.6z"/>
	<path class="st2" d="M902.7,722.8c3.6-0.5,7.3-1,10.9-1.5C910,721.8,906.4,722.3,902.7,722.8z"/>
	<path class="st2" d="M1021.4,201.5c-2.9-3.1-5.7-6.2-8.6-9.2C1015.7,195.3,1018.6,198.4,1021.4,201.5z"/>
	<path class="st2" d="M880.9,86.3c-3.8-2.2-7.6-4.3-11.3-6.5C873.4,82,877.1,84.2,880.9,86.3z"/>
	<path class="st2" d="M1001.6,691.4c3.8-2.2,7.5-4.4,11.3-6.6C1009.1,687,1005.4,689.2,1001.6,691.4z"/>
	<path class="st2" d="M1076.8,629.9c2.5-3.1,5-6.2,7.6-9.3C1081.9,623.7,1079.3,626.8,1076.8,629.9z"/>
	<path class="st2" d="M98.7,657.8c3.1,2.5,6.2,5.1,9.2,7.6C104.9,662.9,101.8,660.4,98.7,657.8z"/>
	<path class="st2" d="M1040.3,223.5c-2.5-3.1-5.1-6.1-7.6-9.2C1035.3,217.3,1037.8,220.4,1040.3,223.5z"/>
	<path class="st2" d="M414.9,20.2c-3.5,1-7,2.1-10.5,3.1C407.9,22.3,411.4,21.2,414.9,20.2z"/>
	<path class="st2" d="M231,102c-3.1,2.1-6.2,4.2-9.3,6.3C224.7,106.2,227.8,104.1,231,102z"/>
	<path class="st2" d="M66.8,261.1c-2.1,3.1-4.2,6.2-6.3,9.2C62.6,267.3,64.7,264.2,66.8,261.1z"/>
	<path class="st2" d="M220.9,108.8c-3.1,2.2-6.2,4.3-9.3,6.5C214.7,113.2,217.8,111,220.9,108.8z"/>
	<path class="st2" d="M50.2,603.8c2.2,3.1,4.4,6.1,6.6,9.2C54.6,609.9,52.4,606.8,50.2,603.8z"/>
	<path class="st2" d="M471.9,8.3c-3,0.5-6,1-9,1.6C465.9,9.3,468.9,8.8,471.9,8.3z"/>
	<path class="st2" d="M915,108.2c-3.1-2.1-6.3-4.3-9.4-6.4C908.7,104,911.9,106.1,915,108.2z"/>
	<path class="st2" d="M1048.4,233.4c-2.2-2.7-4.4-5.5-6.6-8.2C1044,227.9,1046.2,230.7,1048.4,233.4z"/>
	<path class="st2" d="M3.7,488.9c0.5,2.6,1,5.3,1.4,7.9C4.7,494.2,4.2,491.6,3.7,488.9z"/>
	<path class="st2" d="M261.9,82.8c-3.1,1.8-6.2,3.7-9.3,5.5C255.7,86.5,258.8,84.7,261.9,82.8z"/>
	<path class="st2" d="M5.2,393.2c-0.5,2.7-1,5.3-1.5,8C4.3,398.5,4.7,395.8,5.2,393.2z"/>
	<path class="st2" d="M893.9,94.3c-2.8-1.7-5.6-3.5-8.4-5.2C888.3,90.9,891.1,92.6,893.9,94.3z"/>
	<path class="st2" d="M1028.6,674.4c2.5-1.8,4.9-3.7,7.4-5.5C1033.5,670.8,1031,672.6,1028.6,674.4z"/>
	<path class="st2" d="M86.9,234.2c-1.8,2.4-3.7,4.7-5.5,7.1C83.2,239,85,236.6,86.9,234.2z"/>
	<path class="st2" d="M1058.4,246.4c-1.9-2.4-3.7-4.9-5.6-7.3C1054.7,241.6,1056.5,244,1058.4,246.4z"/>
	<path class="st2" d="M1084.9,620c1.8-2.5,3.6-4.9,5.5-7.4C1088.5,615.1,1086.7,617.5,1084.9,620z"/>
	<path class="st2" d="M1069.8,637.9c1.8-2.1,3.7-4.2,5.5-6.3C1073.5,633.7,1071.7,635.8,1069.8,637.9z"/>
	<path class="st2" d="M901.9,99.4c-2.4-1.5-4.8-3.1-7.3-4.6C897,96.3,899.4,97.8,901.9,99.4z"/>
	<path class="st2" d="M55.9,277.2c-1.5,2.4-3.1,4.7-4.6,7.1C52.8,281.9,54.4,279.6,55.9,277.2z"/>
	<path class="st2" d="M931.9,120.3c-2.1-1.5-4.2-3.1-6.3-4.6C927.7,117.2,929.8,118.8,931.9,120.3z"/>
	<path class="st2" d="M113.8,669.8c2.1,1.5,4.1,3,6.2,4.5C117.9,672.8,115.8,671.3,113.8,669.8z"/>
	<path class="st2" d="M79.9,243.2c-1.5,2-3.1,4.1-4.6,6.1C76.8,247.3,78.3,245.3,79.9,243.2z"/>
	<path class="st2" d="M1063.4,253.4c-1.5-2.1-3.1-4.2-4.6-6.3C1060.4,249.2,1061.9,251.3,1063.4,253.4z"/>
	<path class="st2" d="M925,115.2c-2.1-1.5-4.2-3-6.4-4.5C920.7,112.2,922.9,113.7,925,115.2z"/>
	<path class="st2" d="M210.9,115.8c-2.1,1.5-4.2,3-6.3,4.5C206.8,118.8,208.8,117.3,210.9,115.8z"/>
	<path class="st2" d="M1041.6,664.5c1.8-1.5,3.6-3,5.4-4.6C1045.2,661.5,1043.4,663,1041.6,664.5z"/>
	<path class="st2" d="M1047.6,659.4c1.8-1.5,3.5-3,5.3-4.6C1051.1,656.4,1049.3,657.9,1047.6,659.4z"/>
	<path class="st2" d="M70.3,629.7c1.5,1.7,3,3.4,4.6,5.1C73.4,633.1,71.9,631.4,70.3,629.7z"/>
	<path class="st2" d="M1028.5,209.4c-1.5-1.8-3.1-3.5-4.6-5.3C1025.4,205.9,1026.9,207.7,1028.5,209.4z"/>
	<path class="st2" d="M113.9,202.3c-1.5,1.7-3.1,3.4-4.6,5.1C110.8,205.7,112.3,204,113.9,202.3z"/>
	<path class="st2" d="M975,155.2c-1.8-1.5-3.6-3-5.4-4.5C971.4,152.2,973.2,153.7,975,155.2z"/>
	<path class="st2" d="M170,147.9c-1.7,1.5-3.5,3-5.2,4.5C166.5,150.8,168.2,149.3,170,147.9z"/>
	<path class="st2" d="M176,142.9c-1.8,1.5-3.5,2.9-5.3,4.4C172.4,145.8,174.2,144.3,176,142.9z"/>
	<path class="st2" d="M195.9,126.8c-1.6,1.3-3.2,2.5-4.8,3.8C192.7,129.3,194.3,128,195.9,126.8z"/>
	<path class="st2" d="M1070.4,263.4c-1.2-1.7-2.4-3.5-3.6-5.2C1068,259.9,1069.2,261.6,1070.4,263.4z"/>
	<path class="st2" d="M1036.6,668.5c1.6-1.3,3.3-2.6,4.9-3.9C1039.9,665.9,1038.2,667.2,1036.6,668.5z"/>
	<path class="st2" d="M10.2,372.2c-0.5,1.6-0.9,3.3-1.4,4.9C9.3,375.5,9.7,373.9,10.2,372.2z"/>
	<path class="st2" d="M46.2,597.8c1.2,1.8,2.4,3.5,3.6,5.3C48.6,601.3,47.4,599.5,46.2,597.8z"/>
	<path class="st2" d="M1090.8,611.9c1.2-1.7,2.4-3.5,3.6-5.2C1093.2,608.4,1092,610.2,1090.8,611.9z"/>
	<path class="st2" d="M1052.3,238.5c-1.1-1.5-2.3-2.9-3.4-4.4C1050,235.6,1051.1,237,1052.3,238.5z"/>
	<path class="st2" d="M91.9,651.8c1.4,1.2,2.8,2.5,4.1,3.7C94.6,654.3,93.2,653,91.9,651.8z"/>
	<path class="st2" d="M61.2,618.8c1.2,1.4,2.4,2.9,3.6,4.3C63.6,621.6,62.4,620.2,61.2,618.8z"/>
	<path class="st2" d="M91.8,228.1c-1.2,1.4-2.3,2.9-3.5,4.3C89.4,230.9,90.6,229.5,91.8,228.1z"/>
	<path class="st2" d="M106.8,210.2c-1.2,1.4-2.4,2.8-3.6,4.2C104.4,213,105.6,211.6,106.8,210.2z"/>
	<path class="st2" d="M161.9,154.7c-1.3,1.2-2.7,2.5-4,3.7C159.3,157.2,160.6,155.9,161.9,154.7z"/>
	<path class="st2" d="M966.9,148.3c-1.4-1.2-2.8-2.5-4.3-3.7C964.1,145.8,965.5,147,966.9,148.3z"/>
	<path class="st2" d="M182,137.8c-1.4,1.2-2.8,2.3-4.2,3.5C179.2,140.2,180.6,139,182,137.8z"/>
	<path class="st2" d="M955,138.2c-1.5-1.2-2.9-2.3-4.4-3.5C952,135.9,953.5,137.1,955,138.2z"/>
	<path class="st2" d="M1087.5,289.3c-0.9-1.4-1.8-2.8-2.6-4.3C1085.7,286.5,1086.6,287.9,1087.5,289.3z"/>
	<path class="st2" d="M251.9,88.8c-1.4,0.9-2.8,1.7-4.2,2.6C249.1,90.5,250.5,89.7,251.9,88.8z"/>
	<path class="st2" d="M945,130.2c-1.1-0.9-2.2-1.7-3.4-2.6C942.7,128.5,943.9,129.4,945,130.2z"/>
	<path class="st2" d="M235.9,98.8c-1.2,0.8-2.4,1.6-3.6,2.4C233.5,100.4,234.7,99.6,235.9,98.8z"/>
	<path class="st2" d="M57.4,613.7c0.8,1,1.7,2.1,2.5,3.1C59,615.8,58.2,614.8,57.4,613.7z"/>
	<path class="st2" d="M203.9,120.9c-1.1,0.8-2.2,1.6-3.3,2.5C201.8,122.5,202.9,121.7,203.9,120.9z"/>
	<path class="st2" d="M936,123.3c-1.1-0.8-2.3-1.6-3.4-2.4C933.7,121.6,934.8,122.4,936,123.3z"/>
	<path class="st2" d="M69.7,257c-0.8,1.1-1.6,2.2-2.4,3.4C68.1,259.2,68.9,258.1,69.7,257z"/>
	<path class="st2" d="M74.8,250c-0.8,1.1-1.6,2.2-2.4,3.3C73.2,252.2,74,251.1,74.8,250z"/>
	<path class="st2" d="M109.8,666.8c1.1,0.8,2.1,1.6,3.2,2.4C111.9,668.4,110.8,667.6,109.8,666.8z"/>
	<path class="st2" d="M199.9,123.8c-1.1,0.8-2.2,1.6-3.3,2.5C197.8,125.5,198.9,124.7,199.9,123.8z"/>
	<path class="st2" d="M939.9,126.3c-1.1-0.9-2.2-1.7-3.3-2.6C937.7,124.6,938.8,125.5,939.9,126.3z"/>
	<path class="st2" d="M959.9,142.2c-1.1-0.9-2.2-1.7-3.3-2.6C957.7,140.5,958.8,141.4,959.9,142.2z"/>
	<path class="st2" d="M187,133.9c-1.1,0.8-2.1,1.7-3.2,2.5C184.8,135.5,185.9,134.7,187,133.9z"/>
	<path class="st2" d="M948.9,133.3c-1.1-0.9-2.2-1.7-3.3-2.6C946.7,131.6,947.8,132.5,948.9,133.3z"/>
	<path class="st2" d="M191,130.7c-1.1,0.9-2.2,1.7-3.3,2.6C188.8,132.4,189.9,131.6,191,130.7z"/>
	<path class="st2" d="M241.9,94.9c-0.8,0.5-1.5,1-2.3,1.4C240.4,95.9,241.2,95.4,241.9,94.9z"/>
	<path class="st2" d="M238.9,96.8c-0.8,0.5-1.5,1-2.3,1.5C237.4,97.8,238.2,97.3,238.9,96.8z"/>
	<path class="st2" d="M904.9,101.3c-0.8-0.5-1.5-1-2.3-1.6C903.4,100.3,904.1,100.8,904.9,101.3z"/>
	<path class="st2" d="M246.9,91.9c-0.8,0.5-1.5,1-2.3,1.4C245.4,92.8,246.2,92.4,246.9,91.9z"/>
	<path class="st2" d="M66.2,624.8c0.6,0.7,1.2,1.4,1.7,2.1C67.3,626.1,66.7,625.4,66.2,624.8z"/>
	<path class="st2" d="M77.9,637.8c0.7,0.7,1.3,1.4,2,2.1C79.2,639.2,78.5,638.5,77.9,637.8z"/>
	<path class="st2" d="M1065.5,256.4c-0.6-0.8-1.1-1.5-1.7-2.3C1064.4,254.8,1065,255.6,1065.5,256.4z"/>
	<path class="st2" d="M71.8,254.1c-0.6,0.7-1.1,1.4-1.7,2.2C70.7,255.6,71.3,254.9,71.8,254.1z"/>
	<path class="st2" d="M1032.8,214.3c-0.6-0.7-1.3-1.4-1.9-2.1C1031.5,212.9,1032.1,213.6,1032.8,214.3z"/>
	<path class="st2" d="M1012.8,192.2c-0.7-0.7-1.3-1.3-2-2C1011.5,190.9,1012.2,191.6,1012.8,192.2z"/>
	<path class="st2" d="M120.7,674.9c0.8,0.5,1.5,1,2.3,1.5C122.2,675.9,121.4,675.4,120.7,674.9z"/>
	<path class="st2" d="M884,88.3c-0.8-0.5-1.6-1-2.4-1.5C882.4,87.3,883.2,87.8,884,88.3z"/>
	<path class="st2" d="M918,110.2c-0.8-0.5-1.6-1-2.4-1.5C916.4,109.2,917.2,109.7,918,110.2z"/>
	<path class="st3" d="M567.9,113.5c0.3,0,0.6-0.1,0.9-0.1c15.7,0.7,31.6,0.3,47.2,2.3c22.8,2.9,45.7,6.1,67.9,11.6
		c24.5,6.1,48.7,13.8,72.3,22.8c18.8,7.2,36.9,16.4,54.3,26.4c19.5,11.2,38.3,23.7,56.6,36.7c12.3,8.7,23.5,18.8,34.8,28.8
		c9.6,8.5,18.8,17.4,27.7,26.6c16.3,16.8,31.5,34.6,44.4,54.1c12.4,18.8,24.5,37.8,35.5,57.3c10.8,19,16.5,39.7,18.5,61.7
		c1.8,20.3-0.6,40-6.4,59.3c-5.6,18.9-14.8,36.2-27.2,51.5c-16.7,20.7-37.1,36.7-61.8,47.1c-13.8,5.8-28.1,9.7-43,11
		c-8.6,0.8-17.2,1-25.9,1c-97.6,0.1-195.2,0-292.8,0.1c0,0,0,0,0,0c-0.3-35.7-0.6-71.5-0.9-107.2c-0.4-45.4-0.7-90.8-1-136.2
		c-0.4-67.7-0.7-135.4-1-203C567.8,148.1,567.8,130.8,567.9,113.5z M782.7,463.2c24.5,0,49,0.1,73.4,0c30-0.1,49.5-31.7,34.8-57.7
		c-25.5-45.5-64.7-68.6-117.2-66.3c-41.9,1.8-74.3,21.7-97.8,56.3c-4.8,7.1-8.6,14.7-8.9,23.4c-0.8,25.6,17.5,44.4,43.2,44.4
		C734.4,463.2,758.6,463.2,782.7,463.2z"/>
	<path class="st4" d="M567.9,113.5c0,17.3-0.1,34.6,0,51.9c0.3,67.7,0.6,135.4,1,203c0.3,45.4,0.6,90.8,1,136.2
		c0.3,35.7,0.6,71.5,0.9,107.2c-97.8,0-195.6,0-293.4-0.1c-17.3,0-34.2-3.2-50.7-8.7c-16.1-5.4-31-12.9-44.7-23.1
		c-24.5-18.2-43.4-41-54.9-69.3c-5.1-12.4-9.3-25.5-11.8-38.7c-2.8-15.4-2.9-31.1-1-46.9c3.6-30.2,16.2-56.2,32.5-81.1
		c14.9-22.8,31.1-44.6,49.4-64.8c21.7-23.9,45.3-45.7,71-65.3c25-19.1,51.6-35.5,79.7-49.2c20.3-9.9,41.6-18,62.9-25.5
		c16.4-5.8,33.4-10.5,50.5-14.1c18.1-3.8,36.5-6.4,54.8-8.4C532.7,114.8,550.3,114.5,567.9,113.5z M359.4,463.2
		c12.2,0,24.3,0,36.5,0c12.3,0,24.7,0,37,0c30.4,0,49-30.2,35.4-57.3c-7.3-14.6-17.3-27.2-29.9-37.6c-30.2-25.2-65-34.5-103.4-27.5
		c-36.6,6.6-64.8,26.7-84.3,58.5c-8.5,13.9-9.1,28.4-1.1,42.6c8,14.1,20.4,21.4,36.9,21.4C310.7,463.2,335.1,463.2,359.4,463.2z"/>
	<path class="st5" d="M782.7,463.2c-24.1,0-48.3,0-72.4,0c-25.7,0-44-18.7-43.2-44.4c0.3-8.8,4.1-16.3,8.9-23.4
		c23.5-34.5,55.8-54.4,97.8-56.3c52.5-2.3,91.7,20.9,117.2,66.3c14.6,26.1-4.9,57.6-34.8,57.7C831.7,463.3,807.2,463.2,782.7,463.2z
		"/>
	<path class="st5" d="M359.4,463.2c-24.3,0-48.6,0-73,0c-16.5,0-28.9-7.2-36.9-21.4c-8-14.2-7.4-28.8,1.1-42.6
		c19.5-31.8,47.7-51.9,84.3-58.5c38.4-6.9,73.2,2.4,103.4,27.5c12.6,10.5,22.5,23,29.9,37.6c13.7,27.1-5,57.3-35.4,57.3
		c-12.3,0-24.7,0-37,0C383.7,463.2,371.5,463.2,359.4,463.2z"/>
</g>
</svg>
