<svg width="44" height="44" viewBox="0 0 44 44" fill="none" xmlns="http://www.w3.org/2000/svg">
<rect x="0.5" y="0.5" width="43" height="43" rx="4.5" fill="white" fill-opacity="0.1"/>
<rect x="0.5" y="0.5" width="43" height="43" rx="4.5" stroke="white"/>
<path d="M28.3428 13.7109C29.8063 13.7111 30.9922 14.8978 30.9922 16.3613C30.992 17.8247 29.8062 19.0105 28.3428 19.0107C27.8063 19.0107 27.3078 18.8502 26.8906 18.5762L24.4854 19.9697C24.7715 20.4685 24.9365 21.0459 24.9365 21.6621C24.9365 23.1183 24.0224 24.3599 22.7373 24.8477L23.0703 27.4014C23.5869 27.6425 23.9452 28.1658 23.9453 28.7734C23.9453 29.6098 23.267 30.2881 22.4307 30.2881C21.5944 30.2879 20.917 29.6097 20.917 28.7734C20.9171 28.2799 21.1531 27.8419 21.5186 27.5654L21.1904 25.0518C19.4675 24.8818 18.1211 23.4297 18.1211 21.6621C18.1211 21.3131 18.174 20.9763 18.2715 20.6592L16.3896 19.0898C16.0593 19.2773 15.6784 19.3867 15.2715 19.3867C14.0171 19.3866 13.0002 18.3696 13 17.1152C13 15.8607 14.017 14.8438 15.2715 14.8438C16.5261 14.8438 17.543 15.8607 17.543 17.1152C17.5429 17.3924 17.4903 17.6568 17.3994 17.9023L19.0752 19.2988C19.695 18.6555 20.5654 18.2549 21.5293 18.2549C22.2138 18.255 22.8509 18.4572 23.3848 18.8047L25.8867 17.3564C25.762 17.0491 25.6924 16.7134 25.6924 16.3613C25.6924 14.8977 26.8791 13.7109 28.3428 13.7109Z" fill="white"/>
</svg>
