<svg width="44" height="44" viewBox="0 0 44 44" fill="none" xmlns="http://www.w3.org/2000/svg">
<rect x="0.5" y="0.5" width="43" height="43" rx="4.5" fill="white" fill-opacity="0.1"/>
<rect x="0.5" y="0.5" width="43" height="43" rx="4.5" stroke="white"/>
<path d="M17.0103 22.8089C17.6493 22.1236 18.422 21.5765 19.2807 21.2013C20.1393 20.8263 21.065 20.6312 22.0021 20.6279C22.9391 20.6248 23.8667 20.8135 24.7281 21.1827C25.5893 21.5519 26.366 22.0934 27.0098 22.7743M14 18.6304C15.0225 17.5339 16.2588 16.6585 17.6326 16.0584C19.0065 15.4581 20.4898 15.1459 21.9891 15.1407C23.4884 15.1355 24.972 15.4376 26.3501 16.0282C27.7281 16.6188 28.9698 17.4843 30 18.5736M22.026 28.8589C21.2683 28.8589 20.6542 28.2447 20.6542 27.4871C20.6542 26.7295 21.2683 26.1152 22.026 26.1152C22.7836 26.1152 23.3978 26.7295 23.3978 27.4871C23.3978 28.2447 22.7836 28.8589 22.026 28.8589Z" stroke="white" stroke-width="2.74365" stroke-linecap="round" stroke-linejoin="round"/>
</svg>
