<svg width="40" height="40" viewBox="0 0 40 40" fill="none" xmlns="http://www.w3.org/2000/svg">
<rect x="0.328125" y="0.222656" width="39.3215" height="39.3215" rx="19.6608" fill="#DCFC00"/>
<g clip-path="url(#clip0_1769_2275)">
<path d="M19.3117 25.0812C18.4126 25.0812 17.5504 24.7241 16.9147 24.0884C16.279 23.4527 15.9219 22.5905 15.9219 21.6915C15.9219 19.4316 19.3117 15.5898 19.3117 15.5898C19.3117 15.5898 22.7014 19.4316 22.7014 21.6915C22.7014 22.5905 22.3443 23.4527 21.7086 24.0884C21.0729 24.7241 20.2107 25.0812 19.3117 25.0812Z" fill="#2F2F2F"/>
</g>
<path d="M29.3776 19.568C29.3776 25.0933 25.3663 30.2684 19.8862 31.7825C19.5133 31.8842 19.1065 31.8842 18.7336 31.7825C13.2534 30.2684 9.24219 25.0933 9.24219 19.568V14.6075C9.24219 13.681 9.94275 12.6302 10.8128 12.2799L17.1065 9.70368C18.5189 9.12742 20.1121 9.12742 21.5245 9.70368L27.8183 12.2799C28.677 12.6302 29.3889 13.681 29.3889 14.6075L29.3776 19.568Z" stroke="#2F2F2F" stroke-width="2.03387" stroke-linecap="round" stroke-linejoin="round"/>
<defs>
<clipPath id="clip0_1769_2275">
<rect width="13.5591" height="13.5591" fill="white" transform="translate(12.5312 13.7812)"/>
</clipPath>
</defs>
</svg>
