<svg width="29" height="29" viewBox="0 0 29 29" fill="none" xmlns="http://www.w3.org/2000/svg">
<path d="M20.4675 18.1473L19.9162 17.9898C18.9887 17.736 18.35 17.5435 18.245 16.4585C20.7212 13.8335 20.6862 11.4973 20.6337 9.04726C20.6337 8.71476 20.6337 8.38227 20.6337 8.04102C20.6111 6.42361 19.9585 4.8788 18.8148 3.73501C17.671 2.59121 16.1262 1.93864 14.5087 1.91602C12.8898 1.93638 11.3428 2.58796 10.1971 3.73199C9.05146 4.87602 8.39768 6.42211 8.375 8.04102C8.375 8.38227 8.375 8.71476 8.375 9.04726C8.3225 11.4973 8.2875 13.816 10.7637 16.4585C10.6587 17.5435 10.02 17.736 9.0925 17.9898L8.54125 18.1473C5.40875 19.1885 2.25 22.041 2.25 25.541C2.25 25.7731 2.34219 25.9956 2.50628 26.1597C2.67038 26.3238 2.89294 26.416 3.125 26.416C3.35706 26.416 3.57962 26.3238 3.74372 26.1597C3.90781 25.9956 4 25.7731 4 25.541C4 22.916 6.625 20.6323 9.0925 19.8098C9.2325 19.7573 9.39 19.7223 9.5475 19.6785C10.1314 19.5921 10.6851 19.3634 11.1597 19.0124C11.6343 18.6614 12.0152 18.199 12.2687 17.666C12.955 18.0337 13.7215 18.226 14.5 18.226C15.2785 18.226 16.045 18.0337 16.7312 17.666C16.9792 18.2072 17.3576 18.6784 17.8326 19.0373C18.3075 19.3962 18.8642 19.6315 19.4525 19.7223C19.61 19.766 19.7675 19.801 19.9075 19.8535C22.375 20.6323 25 22.916 25 25.541C25 25.7731 25.0922 25.9956 25.2563 26.1597C25.4204 26.3238 25.6429 26.416 25.875 26.416C26.1071 26.416 26.3296 26.3238 26.4937 26.1597C26.6578 25.9956 26.75 25.7731 26.75 25.541C26.75 22.041 23.5912 19.1885 20.4675 18.1473ZM12.2775 15.5223C10.0375 13.291 10.0725 11.4185 10.125 9.07352C10.125 8.74102 10.125 8.39102 10.125 8.04102C10.125 6.88069 10.5859 5.76789 11.4064 4.94742C12.2269 4.12695 13.3397 3.66602 14.5 3.66602C15.6603 3.66602 16.7731 4.12695 17.5936 4.94742C18.4141 5.76789 18.875 6.88069 18.875 8.04102C18.875 8.39102 18.875 8.74102 18.875 9.07352C18.875 11.4185 18.9537 13.2735 16.7137 15.5135C16.4228 15.8053 16.077 16.0369 15.6964 16.1948C15.3158 16.3528 14.9077 16.4341 14.4956 16.4341C14.0835 16.4341 13.6755 16.3528 13.2948 16.1948C12.9142 16.0369 12.5685 15.8053 12.2775 15.5135V15.5223Z" fill="white"/>
</svg>
